<svg xmlns="http://www.w3.org/2000/svg" xmlns:xlink="http://www.w3.org/1999/xlink" viewBox="0 0 150 59.999998">
   <defs id="defs69" />
   <path style="color:#000000;fill:#000000;stroke-width:5.32928;-inkscape-stroke:none"
      d="M 2.2503884,6.6245415e-5 V 1.8489704 H -3.0494486e-6 v 6.236853 6.2378726 H 2.2503884 v 5.912803 c 0,4.877221 -0.020772,7.276245 0.179609,9.000468 0.2003463,1.724217 1.2479614,3.256011 1.8943355,3.883416 0.6504593,0.631331 2.1009077,1.613274 3.67881,1.826346 1.577885,0.213072 3.5396261,0.189287 7.5065791,0.195862 l 7.620686,0.01232 1.417848,-0.652198 h 0.0012 l 3.615415,-1.663297 c 0.696631,0.716239 1.565514,1.221023 2.537761,1.653042 0.994179,0.441781 2.253692,0.652316 3.859469,0.635789 2.344979,-0.02414 4.538617,-0.472173 6.416254,-1.428467 0.416803,0.287765 0.832561,0.575333 1.321708,0.792678 0.994173,0.441781 2.254748,0.652316 3.860525,0.635789 H 56.69516 c 1.605765,0.01652 2.865267,-0.19398 3.859463,-0.635789 0.692592,-0.307752 1.333588,-0.650523 1.898571,-1.079809 v 1.741231 h 14.736358 v -2.007848 l 1.883776,1.238753 3.29106,0.759871 13.599539,0.01025 5.137863,-2.364716 c 0.10622,0.125986 0.20893,0.239708 0.30217,0.330198 0.65045,0.631331 2.10092,1.61328 3.6788,1.826346 1.57789,0.213078 3.53963,0.189288 7.50658,0.195862 l 7.62174,0.01232 1.41785,-0.652198 0.001,-0.0011 3.11252,-1.432572 c 0.40838,0.475602 1.04005,0.958578 1.85947,1.174154 1.40447,0.585794 2.75238,0.71108 4.04119,0.76294 1.46877,0.05911 2.89569,0.03903 3.91864,0.135361 l 0.13206,0.01232 h 0.13207 c 4.71811,-0.0028 7.08328,0.009 8.7892,-0.164075 1.70592,-0.173102 3.16793,-0.962167 3.89856,-1.536139 0.29399,-0.230954 0.68151,-0.455306 1.18859,-1.046991 0.50706,-0.59167 0.85447,-1.45559 0.98467,-2.185258 0.26041,-1.459319 0.19645,-3.028832 0.22398,-6.600889 l 0.0549,-7.11567 -0.79978,-1.321819 c -0.0777,-0.128282 -0.21935,-0.229123 -0.30957,-0.352757 h 1.09139 V 9.1737646 c 0,-1.796563 0.0392,-2.9025318 -0.35288,-4.1777218 -0.392,-1.2751899 -1.46822,-2.3131421 -2.28208,-2.8866771 -0.75788,-0.5340467 -2.07695,-1.19495887 -3.57421,-1.36181102 -1.49727,-0.16683534 -3.41207,-0.15688907 -7.13997,-0.15688907 h -7.3555 L 127.7346,1.2777203 c -0.75287,0.342721 -1.44641,0.7295281 -2.04964,1.2203006 V 1.8489032 h -8.50395 -3.09349 V -9.5915547e-7 H 106.7086 99.329858 V 1.8489032 h -2.24933 -7.240339 V -9.5915547e-7 H 77.189414 62.453055 V 0.62347825 h -0.63919 -4.501839 -0.08663 -4.305324 -2.984677 -4.307436 -4.306379 -3.158996 -4.217625 -7.3798 V 1.8489032 h -6.463793 -3.09455 V -9.5915553e-7 H 9.6280708 Z"
      id="path6875" />
   <path style="color:#000000;fill:#ffffff;stroke-width:0.568456;-inkscape-stroke:none"
      d="m 23.717028,31.99945 c 1.124079,-0.517067 1.591242,-0.966816 2.095022,-2.016944 l 0.411552,-0.857877 0.0017,-7.770529 0.0017,-7.770528 h -4.58716 -4.58716 v 5.544377 5.544377 H 15.841041 14.629339 V 18.11988 11.567435 h 5.798862 5.798863 V 7.9551889 4.3429432 H 20.428201 14.629339 V 3.4188804 2.4948175 H 9.9556286 5.2819184 V 3.4188804 4.3429432 H 4.156766 3.0316135 V 7.9551889 11.567435 H 4.156766 5.2819184 v 8.538088 c 0,9.753702 0.00404,9.787853 1.2812486,11.027582 1.2660562,1.228835 1.3464671,1.239694 9.277874,1.252844 l 7.010566,0.01165 0.865502,-0.39812 z"
      id="path6958" />
   <path style="color:#000000;fill:#ffffff;stroke-width:0.568456;-inkscape-stroke:none"
      d="m 126.62609,18.681699 c 5.7e-4,-8.142282 0.0655,-12.4619673 0.17422,-12.8417628 0.23375,-0.8167651 1.23954,-1.7834973 2.40979,-2.3162055 l 0.96358,-0.4386274 h 6.75091 c 7.44803,0 7.7279,0.031194 9.12683,1.0169899 1.38468,0.9757712 1.51885,1.4121865 1.51885,4.9407233 v 3.0308985 h -4.58716 -4.58716 V 11.233657 10.3936 h -1.21171 -1.2117 v 1.837138 1.837132 l 4.11114,0.05298 c 3.94554,0.05085 4.14229,0.06911 4.88477,0.453227 1.21887,0.630581 1.73818,1.059061 2.19199,1.808615 l 0.42183,0.696749 -0.0493,6.389649 c -0.0552,7.16301 0.028,6.696145 -1.3942,7.813444 -1.39038,1.092237 -1.55551,1.108993 -10.98847,1.115064 -2.52333,-0.237742 -5.8203,0.10928 -7.51094,-0.781953 -1.72958,-0.348781 -1.03616,-7.316041 -1.03616,-7.316041 h 9.36932 l 3e-5,0.879002 h 2.42341 v -3.864263 l -7.30072,-0.04643 c -1.84266,-0.194546 -4.15574,-1.355813 -4.46917,-2.586239 z"
      id="path6938" />
   <path style="color:#000000;fill:#ffffff;stroke-width:0.568456;-inkscape-stroke:none"
      d="m 29.597103,3.1182799 0.0012,12.9782271 c 5.43e-4,8.142282 0.06564,13.204478 0.17433,13.584273 0.233345,0.815343 1.242832,1.787563 2.38245,2.293955 0.81457,0.361964 1.166823,0.413723 2.705755,0.397879 2.090654,-0.0215 4.059071,-0.457495 5.410437,-1.197736 0.505285,-0.276821 0.958883,-0.502478 1.007923,-0.502478 0.01073,0 0.203,-0.147441 0.43106,-0.320963 0.440575,0.62806 1.204871,1.251209 2.042256,1.623298 0.81457,0.361964 1.166817,0.413723 2.705749,0.397879 h 10.591626 c 1.538931,0.01585 1.891179,-0.0359 2.705743,-0.397879 1.139618,-0.506392 2.149116,-1.478612 2.382456,-2.293955 0.108695,-0.379795 0.173752,-5.441991 0.174323,-13.584273 l 0.0012,-12.9782271 h -0.173267 -4.500783 -0.08663 -4.586364 V 14.122496 h -0.0012 V 25.127738 H 51.754546 50.542717 V 17.81928 14.122496 3.1182799 h -4.587414 -4.587408 -0.173274 l 0.0012,12.9782271 c 2.6e-4,3.745474 0.0157,6.745234 0.0412,9.031231 H 40.1562 38.94437 V 14.122496 3.1182799 h -4.672995 z"
      id="path6934" />
   <path style="color:#000000;fill:#ffffff;stroke-width:2.39818;-inkscape-stroke:none"
      d="m 65.484545,2.4948343 h 9.327168 V 32.397615 h -9.327168 z" id="rect3818" />
   <path style="color:#000000;fill:#ffffff;stroke-width:0.568456;-inkscape-stroke:none"
      d="m 96.549254,31.999467 c 1.12408,-0.517067 1.591243,-0.966817 2.095023,-2.016944 l 0.411552,-0.857877 0.0017,-7.770529 0.0017,-7.770528 h -4.58716 -4.58716 v 5.544377 5.544377 h -1.211703 -1.211703 v -6.552446 -6.552446 h 5.798863 5.798863 V 7.9552057 4.34296 H 93.260428 87.461565 V 3.4188972 2.4948343 h -4.67371 -4.67371 V 3.4188972 4.34296 H 76.988992 75.86384 v 3.6122457 3.6122453 h 1.125152 1.125153 v 8.538089 c 0,9.753702 0.004,9.787853 1.281248,11.027581 1.266057,1.228836 1.346467,1.239695 9.277875,1.252845 l 7.010565,0.01165 0.865502,-0.39812 z"
      id="path4232" />
   <path style="color:#000000;fill:#ffffff;stroke-width:0.397204;-inkscape-stroke:none"
      d="m 144.93619,58.822127 c 0.75431,-0.27597 2.56337,-0.624577 3.24125,-0.624577 0.32703,0 0.37273,-0.155315 0.59499,-2.022051 0.20223,-1.6984 0.0887,-4.762407 -0.21258,-5.73866 -0.28012,-0.907648 -0.97516,-1.935245 -1.45628,-2.153111 -0.20588,-0.09322 -0.39336,-0.178087 -0.41662,-0.188587 -0.0233,-0.01047 0.29976,-0.400937 0.71781,-0.867645 1.69087,-1.887592 2.47757,-3.402433 2.57844,-4.964962 0.0838,-1.298846 -0.13522,-1.954085 -0.90565,-2.708786 -0.69379,-0.679651 -1.08373,-0.834076 -2.10608,-0.834076 -0.63415,0 -0.92349,0.05085 -1.20592,0.211851 -0.69899,0.398506 -0.84768,0.748306 -0.82867,1.949571 0.0153,0.968026 -0.01,1.092455 -0.21357,1.063988 -0.12699,-0.0177 -0.98215,-0.655827 -1.90034,-1.417999 l -1.66945,-1.385775 -2.21435,0.803654 c -1.21791,0.44201 -2.27652,0.803655 -2.35248,0.803655 -0.0782,0 -0.10241,-0.12947 -0.0557,-0.298517 0.12854,-0.465767 -0.20389,-1.295408 -0.61233,-1.528266 -0.40909,-0.233228 -1.40015,-0.271551 -2.1464,-0.083 l -0.47164,0.119165 -1.89372,-1.430209 c -1.80114,-1.360288 -1.90741,-1.422581 -2.17365,-1.274255 -0.77856,0.433744 -1.79296,0.666737 -3.23111,0.742146 -0.98619,0.05169 -1.62553,0.139763 -2.0063,0.276306 l -0.55885,0.200398 -1.9118,-2.020387 c -1.14638,-1.211486 -1.98131,-2.001061 -2.08541,-1.972113 -0.0955,0.02655 -1.28262,0.554427 -2.6381,1.173045 -1.35548,0.618623 -2.52756,1.124763 -2.60463,1.124763 -0.0771,0 -0.80818,-0.696177 -1.62469,-1.547071 -0.81652,-0.850888 -1.52998,-1.559101 -1.58546,-1.573802 -0.0555,-0.01473 -0.7906,0.292899 -1.63359,0.683565 l -1.53271,0.710308 -1.12392,-0.810381 c -0.61817,-0.445712 -1.17359,-0.810381 -1.23426,-0.810381 -0.0607,0 -0.59474,0.265615 -1.18681,0.590252 -0.59206,0.324638 -1.16381,0.627915 -1.27055,0.67395 -0.13872,0.05983 -0.48083,-0.143145 -1.19947,-0.71164 l -1.0054,-0.795338 -0.45966,0.237221 -0.459648,0.237221 -5.584241,-4.046438 -5.584247,-4.046443 v 2.997772 2.997772 l 1.18973,1.191531 c 0.654354,0.655345 1.189737,1.231367 1.189737,1.280057 0,0.1153 -1.456409,1.017242 -1.64259,1.017242 -0.0785,0 -0.222867,-0.06998 -0.320813,-0.155523 -0.147741,-0.129027 -0.103162,-0.260798 0.261745,-0.77362 l 0.439831,-0.618108 -1.005425,-0.824169 c -0.552986,-0.453295 -1.082795,-0.887319 -1.177348,-0.964503 -0.143598,-0.117222 -0.276533,-0.0782 -0.807127,0.236924 -0.709919,0.42163 -0.631874,0.432797 -1.856749,-0.265744 -0.472812,-0.269641 -0.929243,-0.490257 -1.014293,-0.490257 -0.08505,0 -0.847575,0.485228 -1.694515,1.078286 L 80.734648,32.35466 80.11717,31.94213 c -0.761186,-0.508537 -1.85072,-0.918345 -2.638148,-0.992292 l -0.594,-0.05578 -0.338751,0.575758 c -0.532382,0.904876 -2.193719,2.076039 -2.944928,2.076039 -0.09713,0 -0.145549,-0.905806 -0.145549,-2.723196 0,-2.469953 0.02637,-2.778708 0.28336,-3.32013 0.155848,-0.328311 0.463724,-0.73491 0.684173,-0.903543 0.481139,-0.368057 0.852058,-0.876919 0.852058,-1.168917 0,-0.378043 -0.419872,-0.816032 -1.067752,-1.113832 -0.806348,-0.370633 -1.035112,-0.318443 -2.512725,0.57326 -1.735632,1.0474 -1.469617,1.000649 -3.082433,0.54177 -4.810044,-1.368554 -9.39406,-0.726308 -12.180964,1.706638 -1.090117,0.951661 -2.194988,2.626993 -2.713118,4.11395 -0.229923,0.659854 -0.418049,1.289964 -0.418049,1.400252 0,0.110288 -0.04726,0.184118 -0.104974,0.164063 -0.05774,-0.02005 -0.341942,-0.12388 -0.631568,-0.23073 L 52.037213,32.391174 51.48586,32.781392 50.9345,33.17161 49.646553,32.613599 48.358611,32.055588 46.89207,33.155783 c -0.806602,0.605115 -1.51082,1.100206 -1.564925,1.100206 -0.05412,0 -0.359553,-0.174754 -0.678756,-0.388336 -0.575651,-0.385183 -1.73116,-0.847618 -2.407509,-0.96349 -0.313317,-0.05365 -0.395505,1.01e-4 -0.749957,0.490784 -0.401657,0.556017 -1.470199,1.368442 -1.799379,1.368084 -0.09795,-1.01e-4 -0.705695,-0.230187 -1.350558,-0.511293 -0.644862,-0.281105 -1.184779,-0.497862 -1.199816,-0.481677 -0.015,0.01619 -0.195459,0.242283 -0.400929,0.50246 -0.543939,0.688735 -1.158111,0.931248 -2.21778,0.875693 -0.705522,-0.03702 -1.161573,-0.161269 -2.742141,-0.747276 -1.042739,-0.386606 -1.937656,-0.715241 -1.988721,-0.730318 -0.05107,-0.01506 -0.301927,0.317419 -0.55747,0.73887 -0.672356,1.108881 -1.702834,1.672548 -3.057679,1.672548 -0.413491,0 -0.434355,0.02235 -0.639099,0.68477 -0.613704,1.985492 -0.611465,1.964423 -0.227794,2.144475 1.940952,0.91084 2.807908,2.308399 2.1152,3.40977 -0.271877,0.432271 -0.947701,1.065198 -1.137396,1.065198 -0.06279,0 -0.317853,-0.262496 -0.566806,-0.583325 -0.963027,-1.241055 -3.281545,-2.624602 -5.487743,-3.274739 -0.442653,-0.130444 -0.804819,-0.271691 -0.804819,-0.313884 0,-0.04217 0.72394,-1.456878 1.60876,-3.14374 0.88482,-1.686869 1.593406,-3.077667 1.574642,-3.09066 -0.09584,-0.06639 -3.043762,-1.455982 -3.297793,-1.55452 -0.260464,-0.101031 -0.322745,-0.07715 -0.52012,0.199491 -0.12825,0.179755 -0.301928,0.292659 -0.405759,0.263778 -0.09985,-0.02778 -1.897821,-0.944236 -3.995497,-2.03659 l -3.81395,-1.986102 -0.50903,0.295622 c -0.2799611,0.162595 -0.7974562,0.516131 -1.1499809,0.785638 -3.2229905,2.464011 -4.9074476,5.075362 -4.919657,7.626761 l -0.00462,0.948458 -0.5899203,0.394116 c -0.7210439,0.481722 -1.3484866,1.431446 -1.8475176,2.796483 -0.487093,1.332381 -0.5158738,3.311712 -0.065865,4.529745 0.5190991,1.40504 1.6825356,2.710713 3.0171915,3.386063 L 4.9163838,48.835052 4.02273,49.17943 c -1.9347313,0.745573 -3.41248351,2.128403 -3.77066858,3.528459 -0.42765025,1.671607 0.1139866,3.816015 1.28484908,5.086848 1.3150032,1.427263 3.4095697,1.832237 6.2220643,1.203029 1.068514,-0.239047 2.8875052,-0.873799 3.7885502,-1.322026 l 0.587705,-0.292373 2.262554,1.26941 c 1.244407,0.69816 2.346018,1.269377 2.448026,1.269377 0.102014,0 1.062461,-0.627691 2.134328,-1.394898 2.895438,-2.072438 4.7872,-3.887107 6.239588,-5.985385 0.357244,-0.516114 0.675783,-0.938389 0.707859,-0.938389 0.03208,0 0.211586,0.239669 0.398916,0.532597 0.625117,0.977518 2.008466,1.886253 3.421427,2.247578 l 0.580267,0.148388 1.632798,-1.261385 c 0.898033,-0.693759 1.696672,-1.261391 1.77474,-1.261391 0.07807,0 0.366592,0.142961 0.641164,0.317687 0.564382,0.359164 1.775987,0.797215 2.19714,0.794364 0.1958,-0.0011 0.826826,-0.517548 2.099523,-1.717558 1.000774,-0.943614 1.886673,-1.718393 1.968671,-1.72172 0.08199,-0.0034 0.798818,0.293494 1.592944,0.659619 l 1.443877,0.665678 0.436588,-0.282831 c 0.240125,-0.15555 1.055289,-0.717605 1.811472,-1.248997 l 1.374879,-0.966172 0.234759,0.235463 c 0.941787,0.944621 1.955318,1.435394 2.968527,1.437427 0.420628,5.6e-4 0.618741,-0.09085 1.329699,-0.615454 0.459484,-0.339041 1.01052,-0.708331 1.224518,-0.820646 l 0.389101,-0.204196 0.571144,0.373988 c 1.023116,0.669935 1.835978,0.80468 2.77027,0.45922 1.009637,-0.373327 1.969017,-1.471438 1.969017,-2.253755 0,-0.55879 2.500891,0.322335 4.848524,1.708261 l 0.777942,0.459248 0.441031,-0.286039 c 0.242571,-0.15732 0.958734,-0.64988 1.591473,-1.094572 0.63274,-0.444693 1.173055,-0.788108 1.200694,-0.763147 0.02764,0.02498 0.230056,0.220425 0.449813,0.434365 0.219756,0.213935 0.718712,0.521653 1.108783,0.683812 1.418805,0.589833 2.850184,0.308593 4.461443,-0.876582 l 0.87898,-0.646542 1.702846,1.062107 c 0.936572,0.584159 1.740548,1.062106 1.786621,1.062106 0.04604,0 0.938002,-0.503832 1.982069,-1.119628 l 1.898305,-1.119634 0.314639,0.492223 c 0.401368,0.627887 1.073055,1.181877 1.805339,1.488991 0.988253,0.414467 1.009515,0.408334 2.803343,-0.807475 0.905286,-0.613572 1.70756,-1.131803 1.78283,-1.151623 0.248278,-0.06535 1.916873,0.595584 3.075463,1.218201 0.626473,0.336667 1.69055,0.997456 2.364615,1.468425 l 1.225568,0.856304 1.170452,-0.607787 c 2.148124,-1.11545 4.277591,-1.935363 5.026511,-1.935363 0.15686,0 1.40643,0.713282 2.88799,1.648517 1.43632,0.906685 2.66937,1.635754 2.74011,1.620146 0.0707,-0.01557 0.9765,-0.464703 2.0128,-0.997999 1.0363,-0.533291 1.95973,-0.946728 2.05206,-0.918749 0.0923,0.02795 1.76139,1.061183 3.70898,2.295994 l 3.54109,2.245103 1.90638,-1.292327 1.90638,-1.292338 0.36886,0.856645 c 0.66123,1.535681 1.84763,2.843616 2.98043,3.285777 0.58533,0.228468 0.55481,0.240884 2.36552,-0.962643 0.68754,-0.456969 1.26396,-0.814105 1.28093,-0.793614 0.017,0.0205 0.17235,0.256856 0.34528,0.525243 0.38535,0.598065 1.42523,1.420374 2.22671,1.76081 l 0.59677,0.253479 0.40331,-0.208138 0.4033,-0.208144 0.96429,0.558946 c 1.0954,0.634916 2.71357,1.261016 3.25759,1.260338 0.20136,0 0.64491,-0.134487 0.98566,-0.298321 0.46954,-0.225791 0.68019,-0.274385 0.87,-0.200768 0.33808,0.131138 1.72535,1.335892 2.72955,2.370456 l 0.81976,0.844549 0.64714,-0.436768 c 0.35593,-0.240223 1.02145,-0.573714 1.47892,-0.741104 z"
      id="path7086" />
   <path style="color:#000000;fill:#000000;stroke-width:0.397204;-inkscape-stroke:none"
      d="M 14.879007,57.069622 C 12.237703,55.445769 12.666617,55.53038 11.250437,56.35391 8.0166505,58.234406 5.4906948,58.495703 3.6647454,57.138574 2.6825854,56.408592 2.3252832,55.715103 2.2440068,54.38107 2.1969238,53.608318 2.2405468,53.206849 2.4190343,52.757911 2.9449595,51.437476 4.0913052,50.320245 5.4215008,49.831695 6.4243867,49.463358 6.9760576,49.425634 8.3670288,49.6303 9.547683,49.804018 9.6228951,49.804231 9.9794703,49.6348 10.185183,49.53711 10.471629,49.266715 10.616024,49.033936 L 10.878559,48.610672 9.7994805,48.503274 C 6.8905056,48.213757 5.2267571,47.425201 4.0872085,45.795871 3.4457273,44.878679 3.1961973,44.048137 3.1937162,42.821917 c -0.00346,-1.621355 0.7731875,-3.397936 1.869513,-4.277464 0.4259769,-0.341741 0.5078765,-0.481364 0.5078765,-0.865819 0,-1.172132 0.892367,-3.474477 1.8153787,-4.683767 1.1924711,-1.562321 3.1921096,-3.391949 3.5356786,-3.235065 0.100104,0.0457 0.905373,0.475175 1.789489,0.95436 0.884116,0.479191 2.535661,1.357382 3.670109,1.951537 l 2.062618,1.080286 0.284692,-0.40446 c 0.156581,-0.222458 0.33357,-0.404465 0.393313,-0.404465 0.05974,0 0.429912,0.148365 0.822602,0.3297 l 0.713987,0.329706 -1.505465,2.891252 c -0.828009,1.590184 -1.549185,2.991808 -1.602616,3.114719 -0.08818,0.202869 0.03866,0.269905 1.375548,0.726963 3.465943,1.184935 5.62398,2.693694 6.393174,4.469681 0.417576,0.964151 0.502153,2.395076 0.204495,3.459803 -0.580526,2.07651 -2.572058,4.906041 -4.957675,7.043784 -0.862692,0.773055 -3.642159,2.89757 -3.781153,2.890167 -0.04766,-0.0034 -0.9055,-0.50805 -1.906274,-1.12333 z"
      id="path7084" />
   <path style="color:#000000;fill:#ffffff;stroke-width:0.397204;-inkscape-stroke:none"
      d="M 8.2979098,55.763714 C 8.7951752,55.59171 9.5286477,55.233296 9.927846,54.96725 l 0.725816,-0.48371 -0.616711,-0.362614 C 8.9310417,53.470694 7.5472831,52.850598 6.9165514,52.722601 6.4130428,52.620422 6.2259386,52.6226 5.9051606,52.734418 5.0780754,53.02268 4.5969256,53.964771 4.807508,54.883648 5.1051021,56.18227 6.2519729,56.47144 8.2979098,55.763737 Z"
      id="path7082" />
   <path style="color:#000000;fill:#000000;stroke-width:0.397204;-inkscape-stroke:none"
      d="M 6.7165859,55.094917 C 6.0424465,54.752683 6.511335,53.6283 7.2705936,53.766422 c 0.4911493,0.08934 1.5197867,0.64998 1.5197867,0.828325 0,0.154951 -0.782154,0.48413 -1.4089447,0.592974 -0.2214127,0.03842 -0.4764242,0.0028 -0.6648497,-0.0928 z"
      id="path7080" />
   <path style="color:#000000;fill:#ffffff;stroke-width:0.397204;-inkscape-stroke:none"
      d="m 19.256047,52.643316 c 1.968012,-2.22684 2.778007,-4.22304 2.274585,-5.605645 -0.578825,-1.589713 -2.657835,-2.664096 -5.662598,-2.926277 l -0.90059,-0.07858 -0.289158,0.574801 c -0.384554,0.764407 -0.37343,0.807586 0.208084,0.807586 1.559467,0 3.862498,0.681398 4.653353,1.376798 1.332504,1.171655 0.858861,3.178406 -1.286153,5.449249 l -0.63492,0.672168 0.449766,0.256935 c 0.247372,0.14132 0.459449,0.257444 0.471283,0.258065 0.01183,0.0011 0.334194,-0.352673 0.716348,-0.785095 z"
      id="path7078" />
   <path style="color:#000000;fill:#ffffff;stroke-width:0.397204;-inkscape-stroke:none"
      d="m 16.169159,51.275619 c 0.298864,-0.348948 0.520351,-0.755626 0.563846,-1.035309 0.06682,-0.429661 0.03502,-0.487143 -0.472968,-0.855335 -0.609192,-0.441534 -1.61168,-0.658761 -2.780483,-0.602483 l -0.64777,0.03119 -0.485466,0.81051 c -0.267013,0.445784 -0.436242,0.823088 -0.376072,0.838455 0.06016,0.0154 0.865225,0.341847 1.789015,0.725507 0.923791,0.383654 1.733185,0.689592 1.798646,0.679853 0.06547,-0.0097 0.340529,-0.276306 0.611252,-0.592386 z"
      id="path7076" />
   <path style="color:#000000;fill:#000000;stroke-width:0.397204;-inkscape-stroke:none"
      d="m 14.209201,50.557275 c -0.439923,-0.176625 -0.799862,-0.370739 -0.799862,-0.431364 0,-0.06062 0.153944,-0.215037 0.342098,-0.343152 0.278732,-0.189791 0.434476,-0.220369 0.84087,-0.165116 0.692246,0.09413 1.013329,0.455681 0.775005,0.872696 -0.09616,0.168253 -0.216104,0.324403 -0.266546,0.347 -0.05043,0.02257 -0.451642,-0.103433 -0.891565,-0.280064 z"
      id="path7074" />
   <path style="color:#000000;fill:#ffffff;stroke-width:0.397204;-inkscape-stroke:none"
      d="m 12.704618,44.615786 c 0.162294,-0.30018 0.275207,-0.560189 0.250927,-0.577791 -0.02429,-0.01764 -0.483245,-0.08132 -1.019908,-0.141611 C 9.8276786,43.659577 8.3695445,42.824953 7.2494292,41.214037 L 6.678925,40.393553 6.769653,41.052958 c 0.1413711,1.027463 0.3199876,1.515312 0.7876471,2.151258 0.5251115,0.714071 1.4239468,1.334621 2.4042719,1.659914 0.739865,0.245503 2.178918,0.463196 2.353005,0.355954 0.05222,-0.0322 0.227748,-0.304117 0.390041,-0.604298 z"
      id="path7072" />
   <path style="color:#000000;fill:#ffffff;stroke-width:0.397204;-inkscape-stroke:none"
      d="m 15.961773,38.374979 c 0.377538,-0.719643 0.629422,-1.335937 0.559743,-1.369539 -0.06967,-0.0336 -1.274543,-0.648059 -2.677482,-1.365451 -1.402938,-0.717398 -2.567153,-1.288038 -2.587146,-1.268095 -0.01996,0.01994 -0.19831,0.313039 -0.396256,0.651325 -1.1728878,2.00441 -0.707484,3.506129 1.322366,4.266919 0.552484,0.207074 2.012205,0.43763 2.614237,0.41291 l 0.478109,-0.0196 0.686429,-1.30844 z"
      id="path7070" />
   <path style="color:#000000;fill:#000000;stroke-width:0.397204;-inkscape-stroke:none"
      d="m 13.052481,38.373966 c -0.234765,-0.07412 -0.60412,-0.287457 -0.820796,-0.474089 -0.348041,-0.299794 -0.384692,-0.395992 -0.314489,-0.825614 0.136859,-0.837548 0.179327,-0.847612 1.357234,-0.321731 1.513752,0.675815 1.478145,0.637984 1.175294,1.248398 -0.217939,0.439277 -0.308834,0.515145 -0.613139,0.511763 -0.196492,-0.0022 -0.54934,-0.06461 -0.784104,-0.138727 z"
      id="path7068" />
   <path style="color:#000000;fill:#000000;stroke-width:0.397204;-inkscape-stroke:none"
      d="m 142.44826,57.369808 c -1.36979,-1.469501 -2.39517,-2.114323 -3.36217,-2.114323 -0.68747,0 -1.10823,0.122161 -1.685,0.489199 l -0.47126,0.2999 -0.68538,-0.430949 -0.68537,-0.430938 1.81421,-2.017918 c 0.99783,-1.109844 1.93049,-2.161601 2.0726,-2.337229 l 0.25838,-0.319323 -1.25336,-1.151662 c -0.68934,-0.63342 -1.36046,-1.264544 -1.49137,-1.402498 -0.20993,-0.221215 -0.23802,-0.580592 -0.23791,-3.043426 l 1.3e-4,-2.792585 1.94928,-0.786215 c 1.0721,-0.432423 2.01154,-0.786221 2.08764,-0.786221 0.0761,0 0.3448,0.194019 0.59712,0.431151 2.25167,2.116149 3.63225,2.729256 4.67784,2.077399 0.42432,-0.264533 0.4543,-0.480557 0.27863,-2.007154 -0.13955,-1.212471 -0.0284,-1.414421 0.7785,-1.414421 1.33877,0 1.86921,1.348275 1.25723,3.195595 -0.46317,1.398095 -1.25533,2.612835 -2.83288,4.344058 -0.44847,0.492167 -0.81502,0.925855 -0.81453,0.963753 0,0.03791 0.18112,0.143196 0.4014,0.234006 0.97982,0.403945 1.83655,1.852853 2.12181,3.588439 0.15692,0.954669 0.12149,2.584503 -0.094,4.323303 l -0.0832,0.671212 -0.87318,0.05907 c -1.0805,0.07315 -2.2343,0.382254 -2.74162,0.734546 l -0.38393,0.266573 z"
      id="path7066" />
   <path style="color:#000000;fill:#ffffff;stroke-width:0.397204;-inkscape-stroke:none"
      d="m 144.04741,53.074355 c 0.0152,-0.964257 -0.0408,-1.578064 -0.17443,-1.911746 -0.20791,-0.519088 -1.00215,-1.23088 -1.29458,-1.160231 -0.15937,0.03853 -3.04297,3.1928 -3.05308,3.339664 -0.002,0.03562 0.23175,0.09684 0.52044,0.136011 0.9453,0.128271 2.00786,0.572751 2.88467,1.206714 l 0.85948,0.62143 0.11753,-0.405793 c 0.0646,-0.223181 0.12762,-1.044908 0.13997,-1.826049 z"
      id="path7064" />
   <path style="color:#000000;fill:#000000;stroke-width:0.397204;-inkscape-stroke:none"
      d="m 142.00531,53.067456 c -0.36566,-0.137809 -0.66485,-0.269872 -0.66485,-0.293477 0,-0.02358 0.2634,-0.347386 0.58531,-0.719526 0.5302,-0.612878 0.60252,-0.659534 0.76805,-0.495466 0.3541,0.350993 0.44241,1.664982 0.11631,1.730792 -0.077,0.01551 -0.43915,-0.08452 -0.80482,-0.222323 z"
      id="path7062" />
   <path style="color:#000000;fill:#ffffff;stroke-width:0.397204;-inkscape-stroke:none"
      d="m 142.88654,47.019419 c 1.24498,-1.46287 1.29731,-1.599054 0.61591,-1.602733 -0.52995,-0.0028 -1.76944,-0.534294 -2.66955,-1.144567 l -0.89212,-0.604852 v 1.725858 1.725869 l 0.78455,0.726739 c 0.43151,0.399705 0.81681,0.703352 0.85625,0.674768 0.0394,-0.02856 0.62667,-0.704069 1.30496,-1.501082 z"
      id="path7060" />
   <path style="color:#000000;fill:#000000;stroke-width:0.397204;-inkscape-stroke:none"
      d="m 141.34539,46.740616 c -0.16525,-0.223792 -0.19954,-1.259386 -0.0399,-1.205522 0.0577,0.01949 0.34027,0.141544 0.62787,0.271244 l 0.52291,0.235821 -0.42465,0.447341 c -0.23356,0.246042 -0.4509,0.447342 -0.48299,0.447342 -0.0321,0 -0.12354,-0.0883 -0.20322,-0.196226 z"
      id="path7058" />
   <path style="color:#000000;fill:#000000;stroke-width:0.397204;-inkscape-stroke:none"
      d="m 131.36476,54.037402 c -0.72373,-0.461734 -1.13017,-1.106461 -1.29301,-2.051122 l -0.0995,-0.57731 -1.96321,1.23051 -1.9632,1.230516 -0.39467,-0.347073 c -0.62795,-0.55222 -1.06157,-1.196387 -1.46435,-2.17535 -0.50556,-1.228824 -0.64511,-3.716357 -0.28144,-5.017163 0.42233,-1.510697 1.08832,-2.421386 2.16147,-2.955668 l 0.4728,-0.235395 -0.0774,-0.713522 c -0.0885,-0.815819 -0.75435,-2.372367 -1.36373,-3.187827 -0.22787,-0.304935 -0.41431,-0.613186 -0.41431,-0.68501 0,-0.2248 0.49655,-0.338118 1.95791,-0.446804 1.50289,-0.111784 2.01788,-0.213526 2.42177,-0.478447 0.23622,-0.15494 0.35764,-0.0877 2.04445,1.132162 l 1.7933,1.296886 0.71555,-0.262798 c 0.87676,-0.322016 1.08795,-0.328115 1.19649,-0.03455 0.14609,0.395084 0.10662,0.45591 -0.71137,1.09628 l -0.79961,0.625977 -0.0478,5.289112 c -0.0284,3.146305 0.005,5.344734 0.082,5.426399 0.10306,0.108995 0.19358,0.112551 0.43919,0.01725 0.25435,-0.09866 0.35711,-0.0887 0.57768,0.056 0.14755,0.09679 0.26829,0.22728 0.26829,0.289993 0,0.102594 -1.03708,0.867791 -2.18082,1.609079 l -0.43121,0.279476 -0.64519,-0.411611 z"
      id="path7056" />
   <path style="color:#000000;fill:#ffffff;stroke-width:0.397204;-inkscape-stroke:none"
      d="m 128.95517,50.078975 c 0.45966,-0.657463 0.73558,-1.545689 0.85133,-2.74058 l 0.0938,-0.967987 -1.20472,-0.891037 c -0.66259,-0.490073 -1.2653,-0.863898 -1.33937,-0.830722 -0.3068,0.137428 -0.63856,1.637983 -0.64049,2.896876 -0.002,1.462982 0.26889,2.297321 0.93753,2.885249 0.51241,0.450567 0.7942,0.374419 1.30195,-0.351799 z"
      id="path7054" />
   <path style="color:#000000;fill:#000000;stroke-width:0.397204;-inkscape-stroke:none"
      d="m 128.0187,49.109218 c -0.19514,-0.329291 -0.25715,-2.711396 -0.074,-2.844433 0.0611,-0.04441 0.26357,0.05438 0.44986,0.219608 0.38641,0.342704 0.4367,0.84601 0.20205,2.022779 -0.16782,0.84172 -0.33354,1.014358 -0.5779,0.602046 z"
      id="path7052" />
   <path style="color:#000000;fill:#ffffff;stroke-width:0.397204;-inkscape-stroke:none"
      d="m 129.62186,41.42927 c -0.38784,-0.317625 -2.31674,-1.498096 -2.37679,-1.454575 -0.0295,0.02139 0.0715,0.48963 0.22464,1.040489 0.15308,0.550859 0.3203,1.279496 0.37159,1.619193 0.088,0.583078 0.1452,0.659322 1.02251,1.363178 l 0.92926,0.74555 0.0387,-1.55508 c 0.0342,-1.370794 0.009,-1.579218 -0.20995,-1.758755 z"
      id="path7050" />
   <path style="color:#000000;fill:#000000;stroke-width:0.397204;-inkscape-stroke:none"
      d="m 128.75859,42.955133 c -0.0648,-0.125538 -0.16374,-0.502163 -0.21992,-0.836937 l -0.10215,-0.608683 0.36335,0.245935 c 0.31073,0.210333 0.36334,0.331514 0.36334,0.836943 0,0.605888 -0.19089,0.777025 -0.40462,0.362742 z"
      id="path7048" />
   <path style="color:#000000;fill:#000000;stroke-width:0.397204;-inkscape-stroke:none"
      d="m 29.355398,52.635045 c -1.851892,-0.851214 -2.908104,-2.884381 -2.746221,-5.286379 0.04351,-0.644923 0.183331,-1.446489 0.310814,-1.781263 0.350845,-0.921352 1.069789,-1.972454 1.721598,-2.51699 0.563915,-0.471155 0.58418,-0.512329 0.58418,-1.187051 0,-1.38768 -0.668514,-2.668414 -1.709274,-3.27461 -0.487555,-0.283979 -0.525874,-0.342077 -0.44398,-0.673261 0.138642,-0.560699 0.23949,-0.634568 1.139889,-0.834905 0.966397,-0.215021 1.879276,-0.79615 2.13588,-1.359683 0.0874,-0.191948 0.204882,-0.348993 0.261059,-0.348993 0.0562,0 0.539432,0.160535 1.073897,0.356738 2.758701,1.012751 4.345587,0.992113 5.565587,-0.0724 l 0.49685,-0.433525 0.359004,0.244445 c 0.466327,0.317525 0.450096,0.452354 -0.13447,1.117405 l -0.486308,0.553256 v 5.34189 c 0,2.938038 0.04028,5.554749 0.08946,5.81492 0.07989,0.422431 0.121055,0.466069 0.384912,0.407948 0.162501,-0.03579 0.40438,-0.134381 0.537511,-0.219075 0.219163,-0.139444 0.268358,-0.131111 0.520225,0.08808 0.152991,0.133143 0.280266,0.288895 0.282828,0.346109 0.0046,0.107589 -1.75432,1.819911 -2.513481,2.446582 l -0.430581,0.355451 -0.609498,-0.213856 c -0.335228,-0.117607 -0.93224,-0.461174 -1.326695,-0.763465 L 33.7014,50.192791 32.538027,51.075669 c -0.639854,0.485581 -1.434437,1.099724 -1.765751,1.364757 -0.331308,0.265027 -0.645012,0.481873 -0.697121,0.481873 -0.0521,0 -0.375997,-0.129285 -0.719757,-0.287288 z"
      id="path7046" />
   <path style="color:#000000;fill:#ffffff;stroke-width:0.397204;-inkscape-stroke:none"
      d="m 31.998629,49.570701 c 0.85998,-0.580692 1.176454,-1.640587 1.117397,-3.742203 l -0.04114,-1.463547 -1.455382,-0.440526 c -0.800462,-0.242289 -1.481029,-0.421944 -1.512372,-0.399223 -0.03133,0.02274 -0.09452,0.77288 -0.140407,1.667037 -0.12139,2.36559 0.28644,3.872636 1.186926,4.386022 0.433593,0.247196 0.468086,0.246888 0.844961,-0.0076 z"
      id="path7044" />
   <path style="color:#000000;fill:#000000;stroke-width:0.397204;-inkscape-stroke:none"
      d="m 31.456202,48.040593 c -0.226635,-0.306929 -0.425856,-2.180212 -0.303901,-2.857645 l 0.103012,-0.572185 0.461999,0.212562 0.462005,0.212563 -0.08173,0.975888 c -0.190838,2.278493 -0.270637,2.530908 -0.641383,2.028817 z"
      id="path7042" />
   <path style="color:#000000;fill:#ffffff;stroke-width:0.397204;-inkscape-stroke:none"
      d="m 33.196674,41.339608 c 0.0696,-1.343716 0.05193,-1.863297 -0.06509,-1.915722 -0.08833,-0.0396 -0.861555,-0.171181 -1.718275,-0.29248 -0.856731,-0.121299 -1.677568,-0.246025 -1.824086,-0.277168 -0.250597,-0.05326 -0.24837,-0.03551 0.03768,0.299956 0.565501,0.663186 0.875126,1.494871 0.911194,2.447568 l 0.03422,0.903823 1.181312,0.332444 c 0.649727,0.182842 1.218719,0.335351 1.264435,0.338902 0.04576,0.0034 0.126098,-0.823245 0.178628,-1.837323 z"
      id="path7040" />
   <path style="color:#000000;fill:#000000;stroke-width:0.397204;-inkscape-stroke:none"
      d="m 31.698542,42.101288 c -0.05129,-0.03724 -0.09331,-0.259264 -0.09331,-0.493433 0,-0.234163 -0.06329,-0.667632 -0.140638,-0.96326 -0.07736,-0.295627 -0.116283,-0.55516 -0.0865,-0.576744 0.02977,-0.02156 0.219035,-0.0092 0.420576,0.02744 0.364371,0.06628 0.366436,0.07231 0.366436,1.070132 0,0.768602 -0.04368,1.003476 -0.186625,1.003476 -0.102643,0 -0.228614,-0.03041 -0.279938,-0.06763 z"
      id="path7038" />
   <path style="color:#000000;fill:#000000;stroke-width:0.397204;-inkscape-stroke:none"
      d="m 135.73419,51.848482 c -0.26529,-0.20004 -0.65557,-0.429476 -0.86727,-0.509842 l -0.38491,-0.146119 v -4.203893 c 0,-4.052435 0.01,-4.207672 0.27074,-4.308905 0.1489,-0.05776 0.33786,-0.105018 0.41991,-0.105018 0.10216,0 0.14916,0.930179 0.14916,2.951804 v 2.951804 l 1.18973,1.048419 c 0.65435,0.576627 1.18973,1.079575 1.18973,1.117652 0,0.117619 -1.28268,1.567821 -1.3867,1.567821 -0.0539,0 -0.31509,-0.163677 -0.58039,-0.363723 z"
      id="path7036" />
   <path style="color:#000000;fill:#000000;stroke-width:0.397204;-inkscape-stroke:none"
      d="m 115.98866,50.338446 -2.32699,-1.46254 0.3265,-0.487625 c 0.6638,-0.991402 0.82739,-1.96976 0.82785,-4.951308 2.8e-4,-1.506491 -0.0511,-3.544677 -0.1141,-4.529302 l -0.11452,-1.790223 2.19017,-1.075666 c 1.2046,-0.591613 2.2398,-1.075665 2.30043,-1.075665 0.0606,0 0.26561,0.171193 0.45548,0.380428 0.61863,0.681724 3.433,4.219938 3.84216,4.830368 l 0.39879,0.59494 -1.34357,0.926768 c -0.73897,0.509724 -2.01781,1.314807 -2.8419,1.789075 l -1.49832,0.862302 0.0432,2.181119 c 0.0384,1.937804 0.0743,2.226381 0.32246,2.586905 0.23795,0.34574 0.35307,0.410278 0.7779,0.436141 0.47981,0.02923 0.79546,-0.09207 2.45181,-0.941967 0.24897,-0.127751 0.83375,0.268516 0.71824,0.486701 -0.0826,0.15606 -3.86634,2.70952 -4.00795,2.704782 -0.0443,-0.0017 -1.12778,-0.660839 -2.40763,-1.465233 z"
      id="path7034" />
   <path style="color:#000000;fill:#ffffff;stroke-width:0.397204;-inkscape-stroke:none"
      d="m 119.31767,42.007039 1.18221,-0.669077 -0.24118,-0.269311 c -0.13265,-0.148119 -0.70283,-0.771167 -1.26707,-1.384555 l -1.02589,-1.115243 v 2.053632 c 0,1.129496 0.0382,2.053632 0.0849,2.053632 0.0467,0 0.61686,-0.301088 1.26707,-0.669078 z"
      id="path7032" />
   <path style="color:#000000;fill:#000000;stroke-width:0.397204;-inkscape-stroke:none"
      d="m 118.66558,41.019143 c 0,-0.341029 0.1537,-0.402908 0.39096,-0.157393 0.17439,0.180456 0.17632,0.226972 0.0125,0.302141 -0.30919,0.141936 -0.40352,0.108093 -0.40352,-0.144748 z"
      id="path7030" />
   <path style="color:#000000;fill:#000000;stroke-width:0.397204;-inkscape-stroke:none"
      d="m 105.40812,48.320595 c -2.3407,-1.49916 -2.34036,-1.498858 -2.15569,-1.908559 0.6079,-1.348684 0.91468,-3.743525 0.92096,-7.189299 0.005,-2.690888 -0.0196,-3.024642 -0.24025,-3.268953 -0.21787,-0.241265 -0.28904,-0.260149 -0.62814,-0.166707 -0.32627,0.08991 -0.4193,0.07236 -0.63369,-0.119529 -0.13819,-0.123701 -0.23101,-0.268964 -0.20625,-0.322806 0.0248,-0.05382 0.71499,-0.434197 1.53384,-0.845232 l 1.48881,-0.747337 1.12757,0.873491 1.12757,0.873492 0.37819,-0.179599 c 0.20801,-0.09879 0.84735,-0.423585 1.42076,-0.721782 l 1.04256,-0.542179 0.37251,0.429902 c 1.50321,1.734825 2.27509,2.733199 2.1664,2.802072 -0.66505,0.42139 -2.55445,1.533547 -2.6053,1.533547 -0.0359,0 -0.46241,-0.371372 -0.94784,-0.825267 l -0.8826,-0.82526 -0.25818,0.241942 c -1.01517,0.951297 -1.58557,3.6545 -1.24983,5.92299 0.28234,1.907692 0.79511,2.964019 1.58197,3.258935 0.39619,0.148488 0.47075,0.147917 0.91908,-0.007 0.26836,-0.09275 0.5309,-0.13195 0.58344,-0.08711 0.0525,0.04486 0.23323,0.214114 0.40156,0.376161 0.29355,0.282618 0.29595,0.302807 0.0589,0.494923 -0.27101,0.219675 -1.96506,1.166077 -3.00691,1.67984 l -0.6603,0.325617 z"
      id="path7028" />
   <path style="color:#000000;fill:#000000;stroke-width:0.397204;-inkscape-stroke:none"
      d="m 42.268784,48.595658 c -0.862473,-0.494088 -1.14038,-0.709759 -1.07339,-0.833023 0.04974,-0.09148 0.151954,-0.605037 0.227206,-1.141246 0.156575,-1.115719 0.106076,-9.772233 -0.0577,-9.890771 -0.05946,-0.04301 -0.422186,0.01792 -0.806059,0.135473 -0.674486,0.206542 -0.702615,0.20741 -0.836681,0.02582 -0.226554,-0.306817 -0.179084,-0.362602 0.7674,-0.901706 0.825666,-0.470292 1.925592,-1.348079 2.062647,-1.646075 0.08964,-0.19491 0.773314,-0.01439 1.310981,0.346159 0.267816,0.179588 0.631488,0.586304 0.808171,0.903812 l 0.32124,0.577282 1.947489,-1.41422 c 1.071116,-0.777825 1.998352,-1.414225 2.060506,-1.414225 0.06216,0 0.561319,0.245846 1.10925,0.546329 l 0.996239,0.546328 0.540506,-0.495606 c 0.297277,-0.272581 0.576563,-0.495605 0.620623,-0.495605 0.04402,0 0.26193,0.09383 0.484144,0.208513 l 0.404028,0.208519 -0.608165,0.882043 -0.608165,0.882043 -0.0928,5.275262 c -0.05585,3.174498 -0.04137,5.331485 0.03629,5.416448 0.106769,0.116751 0.201968,0.103585 0.550108,-0.07609 0.529479,-0.273259 0.598736,-0.269552 0.919255,0.04923 l 0.261543,0.260098 -0.680406,0.52293 c -1.758244,1.351316 -2.503556,1.892475 -2.606424,1.892475 -0.06152,0 -0.393815,-0.188374 -0.738423,-0.4186 -0.491467,-0.328339 -0.68696,-0.56033 -0.906665,-1.075884 -0.263586,-0.618523 -0.280105,-0.94293 -0.280105,-5.500935 0,-5.008958 -0.03831,-5.381747 -0.574596,-5.589762 -0.376978,-0.146232 -0.647759,-0.01484 -1.733046,0.841031 l -0.934719,0.737111 0.06941,4.007173 c 0.06783,3.916184 0.109902,4.324329 0.58703,5.695157 0.08342,0.239657 -0.02054,0.338044 -0.991288,0.938388 -0.596458,0.368864 -1.153593,0.668899 -1.238072,0.666742 -0.08448,-0.0022 -0.677296,-0.303932 -1.31738,-0.670617 z"
      id="path7026" />
   <path style="color:#000000;fill:#000000;stroke-width:0.397204;-inkscape-stroke:none"
      d="m 55.318464,48.360324 c -0.502972,-0.147469 -1.015886,-0.687626 -1.116994,-1.176304 -0.280313,-1.35481 0.657862,-3.361068 2.6793,-5.729593 0.414714,-0.485922 0.791022,-0.953386 0.836248,-1.038798 0.05078,-0.0959 -0.189753,-0.39994 -0.628759,-0.794806 -1.309077,-1.177452 -1.968336,-2.905662 -1.968336,-5.15986 0,-2.501276 0.767885,-4.421434 2.46008,-6.151632 1.143714,-1.169404 2.63228,-1.959954 4.448108,-2.362308 1.917606,-0.424901 4.072591,-0.201838 6.563822,0.679421 l 1.364741,0.48277 1.597884,-0.991743 c 0.878842,-0.545461 1.695414,-0.991744 1.814617,-0.991744 0.119203,0 0.283261,0.0901 0.364578,0.200231 0.122434,0.165804 0.06678,0.266085 -0.323744,0.583324 -0.259373,0.210698 -0.670112,0.583957 -0.912752,0.829461 l -0.441158,0.446373 v 8.709248 c 0,4.790089 0.03722,8.709253 0.08273,8.709253 0.04547,0 0.34027,-0.159779 0.655047,-0.355064 0.314783,-0.195286 0.677203,-0.35507 0.805378,-0.35507 0.296256,0 0.696337,0.316264 0.696337,0.550461 0,0.366019 -1.146623,1.773288 -1.812898,2.224992 -1.599136,1.084144 -3.05049,0.780335 -4.370473,-0.914861 l -0.435988,-0.559915 -1.714899,1.239947 -1.714894,1.239958 -1.169022,-0.60893 c -1.578681,-0.822309 -2.235672,-1.082677 -3.512137,-1.391874 -1.163547,-0.281839 -1.6031,-0.268314 -2.015552,0.06201 -0.203797,0.163217 -0.251134,0.38581 -0.255248,1.200061 -0.0046,0.915746 -0.03352,1.02166 -0.344372,1.26148 -0.354885,0.273808 -1.026087,0.341074 -1.631644,0.163514 z"
      id="path7024" />
   <path style="color:#000000;fill:#ffffff;stroke-width:0.397204;-inkscape-stroke:none"
      d="m 66.054807,44.955696 c 0.247718,-0.07651 0.686591,-0.312373 0.975276,-0.524145 l 0.524887,-0.385038 v -1.767334 -1.767341 l -0.524887,0.05703 c -0.288685,0.03136 -1.710843,0.134583 -3.160357,0.229375 L 61.23425,40.9706 60.405509,42.168835 c -0.455802,0.659036 -0.828741,1.237371 -0.828741,1.285192 0,0.04783 0.236195,0.138408 0.52488,0.201301 0.288686,0.06289 1.371694,0.412501 2.406684,0.776912 2.014208,0.709182 2.644103,0.802154 3.546475,0.523456 z"
      id="path7022" />
   <path style="color:#000000;fill:#000000;stroke-width:0.397204;-inkscape-stroke:none"
      d="m 64.007918,43.696377 c -0.525613,-0.142541 -2.182415,-0.579712 -2.555279,-0.674252 -0.125071,-0.0317 0.775894,-1.369069 0.945642,-1.403674 0.115475,-0.02352 1.013018,-0.0737 1.994549,-0.11147 l 1.784595,-0.06867 v 0.978583 c 0,0.903716 -0.02625,0.997618 -0.343558,1.227581 -0.412123,0.298702 -0.868075,0.311661 -1.825949,0.05192 z"
      id="path7020" />
   <path style="color:#000000;fill:#ffffff;stroke-width:0.397204;-inkscape-stroke:none"
      d="m 64.777742,42.676117 c 0,-0.175477 -0.08985,-0.201883 -0.66485,-0.19537 l -0.66485,0.0076 0.559876,0.187848 c 0.72225,0.242328 0.769824,0.242328 0.769824,0 z"
      id="path7018" />
   <path style="color:#000000;fill:#ffffff;stroke-width:0.397204;-inkscape-stroke:none"
      d="m 67.54212,38.218662 c 0.01921,-0.0034 0.03451,-1.455657 0.03381,-3.227181 l -0.0012,-3.220952 -1.793908,2.434737 c -0.986649,1.339102 -2.11988,2.847962 -2.518282,3.353021 -0.398413,0.505059 -0.724384,0.939727 -0.724384,0.965931 0,0.03416 4.711532,-0.253534 5.00387,-0.305556 z"
      id="path7016" />
   <path style="color:#000000;fill:#000000;stroke-width:0.397204;-inkscape-stroke:none"
      d="m 65.05768,37.155026 c 0,-0.02358 0.267688,-0.400237 0.594865,-0.836943 l 0.594865,-0.794005 0.04183,0.700064 c 0.05464,0.913405 0.01321,0.973817 -0.667331,0.973817 -0.310346,0 -0.564267,-0.01932 -0.564267,-0.04295 z"
      id="path7014" />
   <path style="color:#000000;fill:#ffffff;stroke-width:0.397204;-inkscape-stroke:none"
      d="m 59.470155,38.034258 c 0.121638,-0.153087 1.088265,-1.367272 2.14806,-2.698185 1.325793,-1.66496 1.881786,-2.452541 1.782294,-2.524652 -0.2272,-0.164679 -1.177215,-0.12276 -1.759906,0.07765 -0.291778,0.100354 -0.760297,0.406162 -1.041158,0.679573 l -0.510646,0.497118 -0.04333,-0.475394 c -0.0566,-0.620601 0.405216,-1.712009 0.958826,-2.265914 0.296688,-0.296848 0.679586,-0.515499 1.212285,-0.692252 0.68928,-0.22872 0.904277,-0.252124 1.87372,-0.20396 l 1.09509,0.05438 0.347995,-0.421249 0.347996,-0.421255 -0.586793,-0.200068 c -0.465248,-0.158625 -0.891196,-0.200645 -2.056462,-0.202891 -1.273407,-0.0022 -1.550881,0.02856 -2.077856,0.232416 -1.349237,0.521877 -2.312696,1.512792 -2.980454,3.065368 -0.471681,1.096712 -0.473037,3.065862 -0.0029,4.151087 0.35897,0.828509 0.841822,1.628204 0.9825,1.627196 0.04928,-3.08e-4 0.189084,-0.125897 0.310727,-0.278983 z"
      id="path7012" />
   <path style="color:#000000;fill:#000000;stroke-width:0.397204;-inkscape-stroke:none"
      d="m 59.392554,36.208847 c -0.05297,-0.09764 -0.132393,-0.514154 -0.176458,-0.92558 l -0.08012,-0.748049 0.373072,0.177174 c 0.249057,0.118274 0.512106,0.157012 0.79134,0.116533 0.23005,-0.03332 0.418268,-0.03316 0.418268,3.41e-4 0,0.07866 -1.124714,1.557024 -1.184561,1.557024 -0.02487,0 -0.08855,-0.07989 -0.141544,-0.177532 z"
      id="path7010" />
   <path style="color:#000000;fill:#000000;stroke-width:0.397204;-inkscape-stroke:none"
      d="m 94.223108,47.556675 c -1.334713,-0.934356 -2.439521,-1.480757 -3.62119,-1.790901 -0.384912,-0.101025 -0.719319,-0.193499 -0.74312,-0.2055 -0.02377,-0.01199 0.07068,-0.289226 0.209953,-0.616053 0.231389,-0.542985 0.249726,-0.992253 0.212596,-5.210074 l -0.04062,-4.615856 1.612119,-0.925127 1.612113,-0.925133 L 91.88226,31.9106 C 91.011779,31.164007 90.194382,30.490506 90.065832,30.413926 89.863206,30.293227 89.8321,30.03067 89.8321,28.441164 v -1.833526 l 0.505366,0.349604 c 0.277953,0.192278 2.393459,1.82186 4.70113,3.621279 2.30767,1.799425 4.251068,3.271676 4.31867,3.271676 0.0676,0 0.349703,-0.144322 0.626883,-0.320718 l 0.503981,-0.320717 0.35851,0.259841 0.35851,0.259847 -0.40272,0.382612 -0.40272,0.382618 -0.0382,5.998983 -0.0381,5.998982 -1.278522,0.450887 c -0.703185,0.24799 -1.78384,0.690555 -2.40145,0.983483 -0.617611,0.292933 -1.127345,0.53091 -1.13274,0.528855 -0.0052,-0.0022 -0.584774,-0.406252 -1.287504,-0.898195 z"
      id="path7008" />
   <path style="color:#000000;fill:#ffffff;stroke-width:0.397204;-inkscape-stroke:none"
      d="m 96.830508,41.107965 v -4.611572 l -1.0798,-0.841222 c -0.593885,-0.46267 -1.119106,-0.853985 -1.167159,-0.869588 -0.04806,-0.01557 -0.317973,0.223366 -0.599827,0.53104 l -0.512452,0.559399 0.0012,4.13554 0.0012,4.13554 0.523271,0.181917 c 0.287802,0.100056 1.027166,0.449638 1.643022,0.776851 0.615863,0.327219 1.135499,0.599151 1.154742,0.604304 0.01921,0.005 0.03502,-2.065841 0.03502,-4.602209 z"
      id="path7006" />
   <path style="color:#000000;fill:#000000;stroke-width:0.397204;-inkscape-stroke:none"
      d="m 95.185881,43.262432 -0.314927,-0.110081 v -3.14835 -3.148343 l 0.419907,0.291578 0.419901,0.291578 v 2.973713 c 0,1.635546 -0.04726,2.970632 -0.104974,2.966852 -0.05774,-0.0039 -0.246697,-0.0564 -0.419907,-0.116947 z"
      id="path7004" />
   <path style="color:#000000;fill:#000000;stroke-width:0.397204;-inkscape-stroke:none"
      d="m 119.85882,48.219402 c -0.21736,-0.115194 -0.27985,-0.352018 -0.38146,-1.445627 -0.0668,-0.719318 -0.10363,-1.379754 -0.0817,-1.467624 0.05,-0.200701 4.98626,-3.362178 5.14124,-3.29275 0.0627,0.02806 0.1464,0.174088 0.18606,0.324492 0.0548,0.207645 -0.0554,0.397224 -0.45775,0.787716 -0.99384,0.964554 -1.62552,2.059966 -2.03192,3.523636 -0.24725,0.8905 -0.57545,1.269176 -1.35621,1.564808 -0.4724,0.178871 -0.68866,0.180008 -1.01822,0.0056 z"
      id="path7002" />
   <path style="color:#000000;fill:#ffffff;stroke-width:0.397204;-inkscape-stroke:none"
      d="m 121.11205,45.848189 c 0.17793,-0.510413 0.17483,-0.5268 -0.081,-0.427583 -0.22061,0.08557 -0.26322,0.210725 -0.24974,0.73365 0.009,0.346764 0.0453,0.539176 0.081,0.427583 0.0356,-0.111593 0.14799,-0.441735 0.24975,-0.73365 z"
      id="path7000" />
   <path style="color:#000000;fill:#000000;stroke-width:0.397204;-inkscape-stroke:none"
      d="m 77.058579,46.699279 -1.082859,-0.726123 0.143599,-0.441411 c 0.225071,-0.691826 0.410507,-4.124075 0.41326,-7.649017 0.0029,-3.590359 0.06301,-3.402713 -0.96938,-3.020974 l -0.54084,0.199979 -0.22341,-0.247134 c -0.304449,-0.336762 -0.287612,-0.385934 0.204213,-0.596508 0.800295,-0.342637 2.020791,-1.149652 2.371735,-1.568235 0.400006,-0.477091 0.683867,-0.521894 1.374122,-0.216881 0.428089,0.18917 0.622965,0.424918 1.22884,1.486588 0.116918,0.204873 0.281646,0.114449 2.190804,-1.202559 l 2.064378,-1.424081 0.98137,0.630597 0.981363,0.630603 0.64076,-0.380552 0.640754,-0.380557 0.353368,0.256117 0.353361,0.256111 -0.61064,0.744867 -0.610641,0.744868 -0.03866,5.273458 c -0.02129,2.90041 -0.0084,5.330695 0.02862,5.400649 0.05199,0.09819 0.168837,0.101535 0.512631,0.01467 0.399764,-0.101003 0.47186,-0.08766 0.705125,0.130489 0.1429,0.133648 0.24455,0.288649 0.22589,0.34444 -0.0187,0.05578 -0.808644,0.6476 -1.755521,1.31511 -1.437137,1.013142 -1.760898,1.195989 -1.959554,1.106702 -0.29835,-0.134095 -0.857683,-0.851241 -1.045682,-1.340703 -0.08316,-0.216499 -0.177791,-2.637225 -0.227263,-5.813279 -0.0804,-5.161905 -0.09851,-5.453298 -0.351411,-5.65569 -0.146651,-0.117362 -0.358589,-0.213386 -0.470972,-0.213386 -0.112388,0 -0.692321,0.344188 -1.288755,0.764866 l -1.084422,0.764867 -0.09365,2.557537 c -0.09943,2.715496 0.08036,6.346424 0.347677,7.021214 l 0.160753,0.405793 -1.031465,0.693327 c -0.567302,0.38133 -1.126676,0.730917 -1.243057,0.776851 -0.154261,0.06089 -0.505037,-0.113245 -1.294456,-0.642605 z"
      id="path6998" />
   <path style="color:#000000;fill:#000000;stroke-width:0.397204;-inkscape-stroke:none"
      d="m 39.225056,47.109692 c -0.116756,-0.220521 -0.139098,-7.812414 -0.02389,-8.111043 0.153667,-0.39826 0.600843,-0.374453 0.714668,0.03803 0.152727,0.55348 0.100825,7.794039 -0.05741,8.008326 -0.165098,0.22359 -0.529549,0.260798 -0.633386,0.06467 z"
      id="path6996" />
   <path style="color:#000000;fill:#000000;stroke-width:0.397204;-inkscape-stroke:none"
      d="m 111.70041,46.428613 c -0.81818,-0.758936 -0.89051,-0.800412 -1.2112,-0.694509 -0.49064,0.162025 -1.00004,0.03579 -1.17908,-0.292256 -0.32272,-0.591249 -0.61754,-2.156309 -0.62612,-3.323692 -0.009,-1.176651 0.23394,-2.534704 0.4718,-2.641251 0.0636,-0.02851 0.36201,0.139567 0.66307,0.373489 l 0.54737,0.425316 1.19545,-0.676577 c 0.65749,-0.372112 1.22795,-0.676565 1.26767,-0.676565 0.0397,0 0.15664,0.330971 0.25982,0.735492 0.29099,1.140781 0.24568,4.808235 -0.0774,6.264374 -0.14237,0.641652 -0.29989,1.19964 -0.35006,1.239974 -0.0501,0.04032 -0.48277,-0.289875 -0.96135,-0.733795 z"
      id="path6994" />
   <path style="color:#000000;fill:#ffffff;stroke-width:0.397204;-inkscape-stroke:none"
      d="m 112.00385,43.2439 c 0.046,-0.786545 0.0363,-1.692407 -0.0215,-2.013023 l -0.10521,-0.582938 -0.76983,0.452264 c -0.4234,0.248736 -0.84856,0.453995 -0.94479,0.456123 -0.12127,0.0028 -0.17496,0.203977 -0.17496,0.655939 0,0.63589 0.24731,2.197679 0.36116,2.280828 0.0313,0.02291 0.18037,-0.03926 0.33111,-0.138128 0.2644,-0.173427 0.28651,-0.169529 0.62629,0.110524 0.19372,0.159667 0.35517,0.33595 0.35879,0.391747 0.003,0.05578 0.0625,0.03741 0.13091,-0.04088 0.0684,-0.07829 0.16201,-0.785891 0.20805,-1.57243 z"
      id="path6992" />
   <path style="color:#000000;fill:#000000;stroke-width:0.397204;-inkscape-stroke:none"
      d="m 46.64471,45.54629 c -0.06138,-0.100001 -0.138613,-1.656699 -0.171629,-3.459322 -0.05533,-3.02103 -0.04079,-3.292929 0.186031,-3.474572 0.135335,-0.108389 0.300081,-0.197066 0.366107,-0.197066 0.189856,0 0.07937,7.228697 -0.111194,7.274705 -0.08675,0.02094 -0.207934,-0.04374 -0.269315,-0.143745 z"
      id="path6990" />
   <path style="color:#000000;fill:#000000;stroke-width:0.397204;-inkscape-stroke:none"
      d="m 101.82663,45.451845 c -0.12181,-0.08828 -0.1233,-1.853581 -0.005,-5.286547 0.0854,-2.468726 0.11049,-2.662992 0.3433,-2.662992 0.17809,0 0.27896,0.107544 0.34684,0.369798 0.13166,0.508666 -0.026,4.797326 -0.22869,6.224275 -0.16575,1.166319 -0.27418,1.487948 -0.45696,1.355466 z"
      id="path6988" />
   <path style="color:#000000;fill:#000000;stroke-width:0.397204;-inkscape-stroke:none"
      d="m 81.154047,40.622166 v -3.792035 l 0.421534,-0.292709 0.42154,-0.29271 -0.03664,4.052643 -0.03664,4.052643 -0.384912,0.03209 -0.384912,0.03209 v -3.792029 z"
      id="path6986" />
   <path style="color:#000000;fill:#000000;stroke-width:0.397204;-inkscape-stroke:none"
      d="m 53.163185,40.402004 c -0.0012,-2.059804 0.02504,-3.724898 0.05911,-3.700206 0.03404,0.0247 0.25077,0.416075 0.481559,0.869751 0.552837,1.086731 1.295461,2.142577 1.763362,2.507134 l 0.377111,0.293807 -0.371571,0.467043 c -0.204363,0.256873 -0.806983,1.106165 -1.339157,1.887306 l -0.967591,1.420263 -0.0029,-3.745098 z"
      id="path6984" />
   <path style="color:#000000;fill:#000000;stroke-width:0.397204;-inkscape-stroke:none"
      d="m 88.49382,43.382185 c -0.07227,-0.08146 -0.151959,-1.581273 -0.177093,-3.332916 -0.04749,-3.310704 -0.04097,-3.35255 0.522896,-3.356991 0.167394,-0.0011 0.183665,0.470695 0.107461,3.11795 -0.08927,3.101396 -0.187064,3.872014 -0.453264,3.571957 z"
      id="path6982" />
   <path style="color:#000000;fill:#000000;stroke-width:0.397204;-inkscape-stroke:none"
      d="m 74.042934,42.544088 -0.59089,-0.436371 0.03687,-3.463802 0.03687,-3.463807 0.732064,0.628497 0.732065,0.628503 0.0029,3.271675 c 0.0023,2.607196 -0.03399,3.271675 -0.17804,3.271675 -0.09945,0 -0.446708,-0.196366 -0.771693,-0.43637 z"
      id="path6980" />
   <path style="color:#000000;fill:#ffffff;stroke-width:0.568456;-inkscape-stroke:none"
      d="m 120.79681,31.999461 c 1.12408,-0.517066 1.59125,-0.966816 2.09503,-2.016944 l 0.41155,-0.857877 0.002,-7.770529 0.002,-7.770528 h -4.58716 -4.58716 v 5.544377 5.544377 h -1.2117 -1.2117 v -6.552446 -6.552445 h 5.79886 5.79886 V 7.9552001 4.3429544 h -5.79886 -5.79886 V 3.4188916 2.4948287 h -4.67371 -4.67371 v 0.9240629 0.9240628 h -1.12516 -1.12515 v 3.6122457 3.6122459 h 1.12515 1.12516 v 8.538088 c 0,9.753702 0.004,9.787853 1.28124,11.027582 1.26606,1.228835 1.34647,1.239694 9.27788,1.252844 l 7.01056,0.01165 0.86551,-0.39812 z"
      id="path4234" />
   <g id="path6851" style="fill:#3dffff" transform="translate(-183.37143,-324.61932)" />
</svg>