<svg xmlns="http://www.w3.org/2000/svg" xmlns:xlink="http://www.w3.org/1999/xlink" viewBox="0 0 79 32">
   <path fill="#000" style="fill: var(--color1, #000)"
      d="M1.103 0v0.906h-1.103v6.115h1.103v2.898c0 2.391-0.010 3.567 0.088 4.412s0.612 1.596 0.929 1.904c0.319 0.309 1.030 0.791 1.803 0.895s1.735 0.093 3.68 0.096l3.735 0.006 2.468-1.135c0.341 0.351 0.767 0.599 1.244 0.81 0.487 0.217 1.105 0.32 1.892 0.312 1.149-0.012 2.225-0.231 3.145-0.7 0.204 0.141 0.408 0.282 0.648 0.389 0.487 0.217 1.105 0.32 1.892 0.312h5.164c0.787 0.008 1.404-0.095 1.892-0.312 0.34-0.151 0.931-0.366 1.445-1.044 0.49 0.708 1.267 1.368 1.66 1.368h8.537c0.778 0 1.535-0.563 1.67-1.066 0.168 0.507 0.898 1.066 1.535 1.066h8.457c1.591-0.398 2.035-1.314 2.258-2.568 0.052 0.062 0.378 1.113 0.837 1.54 0.319 0.309 1.091 0.821 1.865 0.926s1.735 0.093 3.68 0.096l3.736 0.006 2.221-1.022c0.2 0.233 0.51 0.47 0.911 0.576 0.688 0.287 1.349 0.349 1.981 0.374 0.72 0.029 1.419 0.019 1.921 0.066l0.065 0.006h0.065c2.313-0.002 3.472 0.004 4.308-0.080s1.553-0.472 1.911-0.753c0.144-0.113 0.334-0.223 0.583-0.513s0.419-0.713 0.483-1.071c0.128-0.715 0.096-1.485 0.11-3.236l0.027-3.488-0.392-0.648c-0.038-0.063-0.108-0.112-0.152-0.173h0.535v-2.773c0-0.881 0.019-1.423-0.173-2.048s-0.72-1.134-1.119-1.415c-0.371-0.262-1.018-0.586-1.752-0.668s-1.673-0.077-3.5-0.077h-3.606l-0.739 0.337c-0.369 0.168-0.709 0.358-1.005 0.598v-0.318h-5.685v-0.906h-7.234v0.906h-1.103c-0.235-0.229-0.5-0.601-1.58-0.601h-7.428c-1.028 0.116-1.72 0.51-2.054 1.198-0.338-0.491-0.664-0.986-1.719-1.198-3.563-0.134-7.792 0-7.792 0-0.882 0.207-1.25 0.683-1.473 1.235v-1.235l-18.956 0v0.601h-4.685v-0.906h-3.617z">
   </path>
   <path fill="#fff" style="fill: var(--color2, #fff)"
      d="M11.62 15.685c0.551-0.253 0.78-0.474 1.027-0.989l0.202-0.421 0.002-7.618h-4.497v5.435h-1.188v-6.424h5.685v-3.541h-5.685v-0.906h-4.582v0.906h-1.103v3.541h1.103v4.185c0 4.781 0.002 4.798 0.628 5.405 0.621 0.602 0.66 0.608 4.548 0.614l3.436 0.006 0.424-0.195z">
   </path>
   <path fill="#fff" style="fill: var(--color2, #fff)"
      d="M68.501 9.157c-0.26-0.234-0.060-6.001 0.085-6.295 0.076-0.485 0.664-1.145 1.281-1.273l0.373-0.077h3.309c3.651 0 3.788 0.015 4.474 0.498 0.679 0.478 0.745 0.692 0.745 2.422v1.486h-4.497v-0.824h-1.188v1.801l2.015 0.026c1.934 0.025 2.030 0.034 2.394 0.222 0.597 0.309 0.856 0.517 1.074 0.887l0.207 0.342-0.024 3.132c-0.027 3.511 0.014 3.282-0.683 3.83-0.682 0.535-0.762 0.544-5.386 0.547-1.237-0.117-2.853 0.054-3.682-0.383-0.848-0.171-0.508-3.586-0.508-3.586h4.593l0 0.431h1.188v-1.894l-3.579-0.023c-0.903-0.095-2.137-1.065-2.191-1.268z">
   </path>
   <path fill="#fff" style="fill: var(--color2, #fff)"
      d="M14.502 1.528l0.001 6.362c0 3.991 0.032 6.473 0.085 6.659 0.114 0.4 0.609 0.876 1.168 1.124 0.399 0.177 0.572 0.203 1.326 0.195 1.025-0.011 1.99-0.224 2.652-0.587 0.248-0.136 0.47-0.246 0.494-0.246 0.005 0 0.099-0.072 0.211-0.157 0.216 0.308 0.591 0.613 1.001 0.796 0.399 0.177 0.572 0.203 1.326 0.195h5.192c0.754 0.008 0.927-0.018 1.326-0.195 0.559-0.248 1.053-0.725 1.168-1.124 0.053-0.186 0.085-2.668 0.085-6.659l0.001-6.362h-4.582v5.394h-0.001v5.394h-1.188v-10.789h-4.582l0.001 6.362c0 1.836 0.008 3.306 0.020 4.427h-1.124v-10.789h-2.291z">
   </path>
   <path fill="#fff" style="fill: var(--color2, #fff)"
      d="M65.643 15.685c0.551-0.253 0.785-0.471 1.027-0.989l0.202-0.421 0.002-7.618h-4.497v5.435h-1.188v-6.424h5.685v-3.541h-5.685v-0.906h-4.582v0.906h-1.103v3.541h1.103v4.185c0 4.781 0.002 4.798 0.628 5.405 0.621 0.602 0.66 0.608 4.548 0.614l3.436 0.006 0.424-0.195z">
   </path>
   <path fill="#fff" style="fill: var(--color2, #fff)"
      d="M40.962 16.072c0.46-0.208 0.788-0.512 1.023-0.946 0.163-0.302 0.181-0.478 0.206-1.968l0.027-1.637h-4.395l-0.025 0.435-0.025 0.435h-1.16l-0.047-1.864h5.64v-3.773c0-2.998-0.023-3.828-0.113-4.043-0.154-0.369-0.809-0.927-1.274-1.085-0.293-0.1-1.95-0.148-3.615-0.147-1.679 0.001-3.366 0.054-3.663 0.155-0.525 0.179-1.245 0.878-1.318 1.279-0.028 0.154-0.040 2.891-0.027 6.081 0.024 5.762 0.026 5.803 0.203 6.132 0.234 0.434 0.563 0.738 1.023 0.946 0.356 0.161 0.53 0.169 3.77 0.169s3.415-0.008 3.77-0.169z">
   </path>
   <path fill="#000" style="fill: var(--color1, #000)"
      d="M36.608 6.858c-0.024-0.062-0.033-0.484-0.020-0.936l0.024-0.823h1.16v1.823l-0.56 0.024c-0.415 0.018-0.572-0.005-0.604-0.089z">
   </path>
   <path fill="#fff" style="fill: var(--color2, #fff)"
      d="M52.594 16.072c0.46-0.208 0.788-0.512 1.023-0.946 0.163-0.302 0.181-0.478 0.206-1.968l0.027-1.637h-4.395l-0.050 0.87h-1.16l-0.047-1.864h5.64v-3.773c0-2.998-0.023-3.828-0.113-4.043-0.154-0.369-0.809-0.927-1.274-1.085-0.293-0.1-1.95-0.148-3.615-0.147-1.679 0.001-3.366 0.054-3.663 0.155-0.525 0.179-1.245 0.878-1.318 1.279-0.028 0.154-0.040 2.891-0.027 6.081 0.024 5.762 0.026 5.803 0.203 6.132 0.234 0.434 0.563 0.738 1.023 0.946 0.356 0.161 0.53 0.169 3.77 0.169s3.415-0.008 3.77-0.169z">
   </path>
   <path fill="#000" style="fill: var(--color1, #000)"
      d="M48.239 6.858c-0.024-0.062-0.033-0.484-0.020-0.936l0.024-0.823h1.16v1.823l-0.56 0.024c-0.415 0.018-0.572-0.005-0.604-0.089z">
   </path>
   <path fill="#fff" style="fill: var(--color2, #fff)"
      d="M77.299 31.372c0.402-0.147 1.367-0.333 1.729-0.333 0.174 0 0.199-0.083 0.317-1.078 0.108-0.906 0.047-2.54-0.113-3.061-0.149-0.484-0.52-1.032-0.777-1.148-0.11-0.050-0.21-0.095-0.222-0.101s0.16-0.214 0.383-0.463c0.902-1.007 1.321-1.815 1.375-2.648 0.045-0.693-0.072-1.042-0.483-1.445-0.37-0.362-0.578-0.445-1.123-0.445-0.338 0-0.493 0.027-0.643 0.113-0.373 0.213-0.452 0.399-0.442 1.040 0.008 0.516-0.005 0.583-0.114 0.567-0.068-0.009-0.524-0.35-1.013-0.756l-0.89-0.739-1.181 0.429c-0.65 0.236-1.214 0.429-1.255 0.429-0.042 0-0.055-0.069-0.030-0.159 0.069-0.248-0.109-0.691-0.327-0.815s-0.747-0.145-1.145-0.044l-0.252 0.064-1.010-0.763c-0.961-0.726-1.017-0.759-1.159-0.68-0.415 0.231-0.956 0.356-1.723 0.396-0.526 0.028-0.867 0.075-1.070 0.147l-0.298 0.107-1.020-1.078c-0.611-0.646-1.057-1.067-1.112-1.052-0.051 0.014-0.684 0.296-1.407 0.626s-1.348 0.6-1.389 0.6c-0.041 0-0.431-0.371-0.867-0.825s-0.816-0.832-0.846-0.839c-0.030-0.008-0.422 0.156-0.871 0.365l-0.817 0.379-0.599-0.432c-0.33-0.238-0.626-0.432-0.658-0.432s-0.317 0.142-0.633 0.315c-0.316 0.173-0.621 0.335-0.678 0.359-0.074 0.032-0.256-0.076-0.64-0.38l-0.536-0.424-0.49 0.253-5.957-4.316v3.198l0.635 0.635c0.349 0.35 0.635 0.657 0.635 0.683 0 0.061-0.777 0.543-0.876 0.543-0.042 0-0.119-0.037-0.171-0.083-0.079-0.069-0.055-0.139 0.14-0.413l0.235-0.33-0.536-0.44c-0.295-0.242-0.578-0.473-0.628-0.514-0.077-0.063-0.147-0.042-0.43 0.126-0.379 0.225-0.337 0.231-0.99-0.142-0.252-0.144-0.496-0.261-0.541-0.261s-0.452 0.259-0.904 0.575l-0.821 0.575-0.329-0.22c-0.406-0.271-0.987-0.49-1.407-0.529l-0.317-0.030-0.181 0.307c-0.284 0.483-1.17 1.107-1.571 1.107-0.052 0-0.078-0.483-0.078-1.452 0-1.317 0.014-1.482 0.151-1.771 0.083-0.175 0.247-0.392 0.365-0.482 0.257-0.196 0.454-0.468 0.454-0.623 0-0.202-0.224-0.435-0.569-0.594-0.43-0.198-0.552-0.17-1.34 0.306-0.926 0.559-0.784 0.534-1.644 0.289-2.565-0.73-5.010-0.387-6.497 0.91-0.581 0.508-1.171 1.401-1.447 2.194-0.123 0.352-0.223 0.688-0.223 0.747s-0.025 0.098-0.056 0.087c-0.031-0.011-0.182-0.066-0.337-0.123l-0.281-0.104-0.588 0.416-1.374-0.595-0.782 0.587c-0.43 0.323-0.806 0.587-0.835 0.587s-0.192-0.093-0.362-0.207c-0.307-0.205-0.923-0.452-1.284-0.514-0.167-0.029-0.211 0-0.4 0.262-0.214 0.297-0.784 0.73-0.96 0.73-0.052-0-0.376-0.123-0.72-0.273s-0.632-0.266-0.64-0.257c-0.008 0.009-0.104 0.129-0.214 0.268-0.29 0.367-0.618 0.497-1.183 0.467-0.376-0.020-0.619-0.086-1.462-0.399-0.556-0.206-1.033-0.381-1.061-0.39s-0.161 0.169-0.297 0.394c-0.359 0.591-0.908 0.892-1.631 0.892-0.221 0-0.232 0.012-0.341 0.365-0.327 1.059-0.326 1.048-0.121 1.144 1.035 0.486 1.498 1.231 1.128 1.819-0.145 0.231-0.505 0.568-0.607 0.568-0.034 0-0.17-0.14-0.302-0.311-0.514-0.662-1.75-1.4-2.927-1.747-0.236-0.070-0.429-0.145-0.429-0.167s0.386-0.777 0.858-1.677c0.472-0.9 0.85-1.641 0.84-1.648-0.051-0.035-1.623-0.777-1.759-0.829-0.139-0.054-0.172-0.041-0.277 0.106-0.068 0.096-0.161 0.156-0.216 0.141-0.053-0.015-1.012-0.504-2.131-1.086l-2.034-1.059-0.271 0.158c-0.149 0.087-0.425 0.275-0.613 0.419-1.719 1.314-2.617 2.707-2.624 4.068l-0.002 0.506-0.315 0.21c-0.385 0.257-0.719 0.763-0.985 1.491-0.26 0.711-0.275 1.766-0.035 2.416 0.277 0.749 0.897 1.446 1.609 1.806l0.217 0.11-0.477 0.184c-1.032 0.398-1.82 1.135-2.011 1.882-0.228 0.892 0.061 2.035 0.685 2.713 0.701 0.761 1.818 0.977 3.318 0.642 0.57-0.128 1.54-0.466 2.021-0.705l0.313-0.156 1.207 0.677c0.664 0.372 1.251 0.677 1.306 0.677s0.567-0.335 1.138-0.744c1.544-1.105 2.553-2.073 3.328-3.192 0.191-0.275 0.36-0.5 0.378-0.5s0.113 0.128 0.213 0.284c0.333 0.521 1.071 1.006 1.825 1.199l0.309 0.079 0.871-0.673c0.479-0.37 0.905-0.673 0.947-0.673s0.196 0.076 0.342 0.169c0.301 0.192 0.947 0.425 1.172 0.424 0.104-0.001 0.441-0.276 1.12-0.916 0.534-0.503 1.006-0.916 1.050-0.918s0.426 0.157 0.85 0.352l0.77 0.355 0.233-0.151c0.128-0.083 0.563-0.383 0.966-0.666l0.733-0.515 0.125 0.126c0.502 0.504 1.043 0.766 1.583 0.767 0.224 0 0.33-0.048 0.709-0.328 0.245-0.181 0.539-0.378 0.653-0.438l0.208-0.109 0.305 0.199c0.546 0.357 0.979 0.429 1.477 0.245 0.538-0.199 1.050-0.785 1.050-1.202 0-0.298 1.334 0.172 2.586 0.911l0.415 0.245 0.235-0.153c0.129-0.084 0.511-0.347 0.849-0.584s0.626-0.42 0.64-0.407c0.015 0.013 0.123 0.118 0.24 0.232s0.383 0.278 0.591 0.365c0.757 0.315 1.52 0.165 2.379-0.468l0.469-0.345 0.908 0.566c0.499 0.312 0.928 0.566 0.953 0.566s0.5-0.269 1.057-0.597l1.012-0.597 0.168 0.263c0.214 0.335 0.572 0.63 0.963 0.794 0.527 0.221 0.538 0.218 1.495-0.431 0.483-0.327 0.911-0.604 0.951-0.614 0.132-0.035 1.022 0.318 1.64 0.65 0.334 0.18 0.902 0.532 1.261 0.783l0.654 0.457 0.624-0.324c1.146-0.595 2.281-1.032 2.681-1.032 0.084 0 0.75 0.38 1.54 0.879 0.766 0.484 1.424 0.872 1.461 0.864s0.521-0.248 1.074-0.532c0.553-0.284 1.045-0.505 1.094-0.49s0.939 0.566 1.978 1.225l1.889 1.197 2.033-1.378 0.197 0.457c0.353 0.819 0.985 1.517 1.59 1.752 0.312 0.122 0.296 0.128 1.262-0.513 0.367-0.244 0.674-0.434 0.683-0.423s0.092 0.137 0.184 0.28c0.206 0.319 0.76 0.758 1.188 0.939l0.318 0.135 0.43-0.222 0.514 0.298c0.584 0.339 1.447 0.673 1.737 0.672 0.107 0 0.344-0.072 0.526-0.159 0.25-0.12 0.363-0.146 0.464-0.107 0.18 0.070 0.92 0.712 1.456 1.264l0.437 0.45 0.345-0.233c0.19-0.128 0.545-0.306 0.789-0.395z">
   </path>
   <path fill="#000" style="fill: var(--color1, #000)"
      d="M7.935 30.437c-1.409-0.866-1.18-0.821-1.935-0.382-1.725 1.003-3.072 1.142-4.046 0.419-0.524-0.389-0.714-0.759-0.758-1.471-0.025-0.412-0.002-0.626 0.093-0.866 0.28-0.704 0.892-1.3 1.601-1.561 0.535-0.196 0.829-0.217 1.571-0.107 0.63 0.093 0.67 0.093 0.86 0.002 0.11-0.052 0.263-0.196 0.34-0.32l0.14-0.226-0.575-0.057c-1.551-0.154-2.439-0.575-3.047-1.444-0.342-0.489-0.475-0.932-0.477-1.586-0.002-0.865 0.412-1.812 0.997-2.281 0.227-0.182 0.271-0.257 0.271-0.462 0-0.625 0.476-1.853 0.968-2.498 0.636-0.833 1.702-1.809 1.886-1.725 0.053 0.024 0.483 0.253 0.954 0.509s1.352 0.724 1.957 1.041l1.1 0.576 0.152-0.216c0.084-0.119 0.178-0.216 0.21-0.216s0.229 0.079 0.439 0.176l0.381 0.176-0.803 1.542c-0.442 0.848-0.826 1.596-0.855 1.661-0.047 0.108 0.021 0.144 0.734 0.388 1.848 0.632 2.999 1.437 3.41 2.384 0.223 0.514 0.268 1.277 0.109 1.845-0.31 1.107-1.372 2.617-2.644 3.757-0.46 0.412-1.942 1.545-2.017 1.541-0.025-0.002-0.483-0.271-1.017-0.599z">
   </path>
   <path fill="#fff" style="fill: var(--color2, #fff)"
      d="M4.426 29.741c0.265-0.092 0.656-0.283 0.869-0.425l0.387-0.258-0.329-0.193c-0.59-0.347-1.328-0.677-1.664-0.746-0.269-0.055-0.368-0.053-0.539 0.006-0.441 0.154-0.698 0.656-0.585 1.146 0.159 0.693 0.77 0.847 1.862 0.469z">
   </path>
   <path fill="#000" style="fill: var(--color1, #000)"
      d="M3.582 29.384c-0.36-0.183-0.109-0.782 0.295-0.709 0.262 0.048 0.811 0.347 0.811 0.442 0 0.083-0.417 0.258-0.751 0.316-0.118 0.020-0.254 0.002-0.355-0.049z">
   </path>
   <path fill="#fff" style="fill: var(--color2, #fff)"
      d="M10.27 28.076c1.050-1.188 1.482-2.252 1.213-2.99-0.309-0.848-1.418-1.421-3.020-1.561l-0.48-0.042-0.154 0.307c-0.205 0.408-0.199 0.431 0.111 0.431 0.832 0 2.060 0.363 2.482 0.734 0.711 0.625 0.458 1.695-0.686 2.906l-0.339 0.358 0.24 0.137c0.132 0.075 0.245 0.137 0.251 0.138s0.178-0.188 0.382-0.419z">
   </path>
   <path fill="#fff" style="fill: var(--color2, #fff)"
      d="M8.624 27.347c0.159-0.186 0.278-0.403 0.301-0.552 0.036-0.229 0.019-0.26-0.252-0.456-0.325-0.235-0.86-0.351-1.483-0.321l-0.345 0.017-0.259 0.432c-0.142 0.238-0.233 0.439-0.201 0.447s0.461 0.182 0.954 0.387c0.493 0.205 0.924 0.368 0.959 0.363s0.182-0.147 0.326-0.316z">
   </path>
   <path fill="#000" style="fill: var(--color1, #000)"
      d="M7.578 26.964c-0.235-0.094-0.427-0.198-0.427-0.23s0.082-0.115 0.182-0.183c0.149-0.101 0.232-0.118 0.448-0.088 0.369 0.050 0.54 0.243 0.413 0.465-0.051 0.090-0.115 0.173-0.142 0.185s-0.241-0.055-0.476-0.149z">
   </path>
   <path fill="#fff" style="fill: var(--color2, #fff)"
      d="M6.776 23.795c0.087-0.16 0.147-0.299 0.134-0.308s-0.258-0.043-0.544-0.076c-1.124-0.126-1.902-0.571-2.499-1.431l-0.304-0.438 0.048 0.352c0.075 0.548 0.171 0.808 0.42 1.147 0.28 0.381 0.759 0.712 1.282 0.885 0.395 0.131 1.162 0.247 1.255 0.19 0.028-0.017 0.121-0.162 0.208-0.322z">
   </path>
   <path fill="#fff" style="fill: var(--color2, #fff)"
      d="M8.513 20.467c0.201-0.384 0.336-0.712 0.299-0.73s-0.68-0.346-1.428-0.728c-0.748-0.383-1.369-0.687-1.38-0.676s-0.106 0.167-0.211 0.347c-0.626 1.069-0.377 1.87 0.705 2.276 0.295 0.11 1.073 0.233 1.394 0.22l0.255-0.010 0.366-0.698z">
   </path>
   <path fill="#000" style="fill: var(--color1, #000)"
      d="M6.961 20.466c-0.125-0.040-0.322-0.153-0.438-0.253-0.186-0.16-0.205-0.211-0.168-0.44 0.073-0.447 0.096-0.452 0.724-0.172 0.807 0.36 0.788 0.34 0.627 0.666-0.116 0.234-0.165 0.275-0.327 0.273-0.105-0.001-0.293-0.034-0.418-0.074z">
   </path>
   <path fill="#000" style="fill: var(--color1, #000)"
      d="M75.972 30.597c-0.731-0.784-1.277-1.128-1.793-1.128-0.367 0-0.591 0.065-0.899 0.261l-0.251 0.16-0.731-0.46 0.968-1.076c0.532-0.592 1.030-1.153 1.105-1.247l0.138-0.17-0.668-0.614c-0.368-0.338-0.726-0.674-0.795-0.748-0.112-0.118-0.127-0.31-0.127-1.623l0-1.489 1.040-0.419c0.572-0.231 1.073-0.419 1.113-0.419s0.184 0.103 0.318 0.23c1.201 1.129 1.937 1.456 2.495 1.108 0.226-0.141 0.242-0.256 0.149-1.070-0.074-0.647-0.015-0.754 0.415-0.754 0.714 0 0.997 0.719 0.671 1.704-0.247 0.746-0.669 1.393-1.511 2.317-0.239 0.262-0.435 0.494-0.434 0.514s0.097 0.076 0.214 0.125c0.523 0.215 0.98 0.988 1.132 1.914 0.084 0.509 0.065 1.378-0.050 2.306l-0.044 0.358-0.466 0.032c-0.576 0.039-1.192 0.204-1.462 0.392l-0.205 0.142z">
   </path>
   <path fill="#fff" style="fill: var(--color2, #fff)"
      d="M76.825 28.306c0.008-0.514-0.022-0.842-0.093-1.020-0.111-0.277-0.534-0.656-0.69-0.619-0.085 0.021-1.623 1.703-1.628 1.781-0.001 0.019 0.124 0.052 0.278 0.073 0.504 0.068 1.071 0.305 1.538 0.644l0.458 0.331 0.063-0.216c0.034-0.119 0.068-0.557 0.075-0.974z">
   </path>
   <path fill="#000" style="fill: var(--color1, #000)"
      d="M75.736 28.303c-0.195-0.073-0.355-0.144-0.355-0.157s0.14-0.185 0.312-0.384c0.283-0.327 0.321-0.352 0.41-0.264 0.189 0.187 0.236 0.888 0.062 0.923-0.041 0.008-0.234-0.045-0.429-0.119z">
   </path>
   <path fill="#fff" style="fill: var(--color2, #fff)"
      d="M76.206 25.077c0.664-0.78 0.692-0.853 0.329-0.855-0.283-0.002-0.944-0.285-1.424-0.61l-0.476-0.323v1.841l0.418 0.388c0.23 0.213 0.436 0.375 0.457 0.36s0.334-0.375 0.696-0.801z">
   </path>
   <path fill="#000" style="fill: var(--color1, #000)"
      d="M75.384 24.928c-0.088-0.119-0.106-0.672-0.021-0.643 0.031 0.010 0.181 0.076 0.335 0.145l0.279 0.126-0.226 0.239c-0.125 0.131-0.24 0.239-0.258 0.239s-0.066-0.047-0.108-0.105z">
   </path>
   <path fill="#000" style="fill: var(--color1, #000)"
      d="M70.061 28.82c-0.386-0.246-0.603-0.59-0.69-1.094l-0.053-0.308-2.094 1.313-0.21-0.185c-0.335-0.295-0.566-0.638-0.781-1.16-0.27-0.655-0.344-1.982-0.15-2.676 0.225-0.806 0.58-1.291 1.153-1.576l0.252-0.126-0.041-0.381c-0.047-0.435-0.402-1.265-0.727-1.7-0.122-0.163-0.221-0.327-0.221-0.365 0-0.12 0.265-0.18 1.044-0.238 0.802-0.060 1.076-0.114 1.292-0.255 0.126-0.083 0.191-0.047 1.090 0.604l0.956 0.692 0.382-0.14c0.468-0.172 0.58-0.175 0.638-0.018 0.078 0.211 0.057 0.243-0.379 0.585l-0.426 0.334-0.025 2.821c-0.015 1.678 0.003 2.851 0.044 2.894 0.055 0.058 0.103 0.060 0.234 0.009 0.136-0.053 0.19-0.047 0.308 0.030 0.079 0.052 0.143 0.121 0.143 0.155 0 0.055-0.553 0.463-1.163 0.858l-0.23 0.149-0.344-0.22z">
   </path>
   <path fill="#fff" style="fill: var(--color2, #fff)"
      d="M68.776 26.709c0.245-0.351 0.392-0.824 0.454-1.462l0.050-0.516-0.643-0.475c-0.353-0.261-0.675-0.461-0.714-0.443-0.164 0.073-0.341 0.874-0.342 1.545-0.001 0.78 0.143 1.225 0.5 1.539 0.273 0.24 0.424 0.2 0.694-0.188z">
   </path>
   <path fill="#000" style="fill: var(--color1, #000)"
      d="M68.277 26.192c-0.104-0.176-0.137-1.446-0.039-1.517 0.033-0.024 0.141 0.029 0.24 0.117 0.206 0.183 0.233 0.451 0.108 1.079-0.090 0.449-0.178 0.541-0.308 0.321z">
   </path>
   <path fill="#fff" style="fill: var(--color2, #fff)"
      d="M69.132 22.096c-0.207-0.169-1.236-0.799-1.268-0.776-0.016 0.011 0.038 0.261 0.12 0.555s0.171 0.682 0.198 0.864c0.047 0.311 0.077 0.352 0.545 0.727l0.496 0.398 0.021-0.829c0.018-0.731 0.005-0.842-0.112-0.938z">
   </path>
   <path fill="#000" style="fill: var(--color1, #000)"
      d="M68.671 22.909c-0.035-0.067-0.087-0.268-0.117-0.446l-0.054-0.325 0.194 0.131c0.166 0.112 0.194 0.177 0.194 0.446 0 0.323-0.102 0.414-0.216 0.193z">
   </path>
   <path fill="#000" style="fill: var(--color1, #000)"
      d="M15.656 28.072c-0.988-0.454-1.551-1.538-1.465-2.819 0.023-0.344 0.098-0.771 0.166-0.95 0.187-0.491 0.571-1.052 0.918-1.342 0.301-0.251 0.312-0.273 0.312-0.633 0-0.74-0.357-1.423-0.912-1.746-0.26-0.151-0.28-0.182-0.237-0.359 0.074-0.299 0.128-0.338 0.608-0.445 0.515-0.115 1.002-0.425 1.139-0.725 0.047-0.102 0.109-0.186 0.139-0.186s0.288 0.086 0.573 0.19c1.471 0.54 2.318 0.529 2.968-0.039l0.265-0.231 0.191 0.13c0.249 0.169 0.24 0.241-0.072 0.596l-0.259 0.295v2.849c0 1.567 0.021 2.963 0.048 3.101 0.043 0.225 0.065 0.249 0.205 0.218 0.087-0.019 0.216-0.072 0.287-0.117 0.117-0.074 0.143-0.070 0.277 0.047 0.082 0.071 0.149 0.154 0.151 0.185 0.002 0.057-0.936 0.971-1.341 1.305l-0.23 0.19-0.325-0.114c-0.179-0.063-0.497-0.246-0.708-0.407l-0.383-0.293-0.62 0.471c-0.341 0.259-0.765 0.587-0.942 0.728s-0.344 0.257-0.372 0.257c-0.028 0-0.201-0.069-0.384-0.153z">
   </path>
   <path fill="#fff" style="fill: var(--color2, #fff)"
      d="M17.066 26.438c0.459-0.31 0.627-0.875 0.596-1.996l-0.022-0.781-0.776-0.235c-0.427-0.129-0.79-0.225-0.807-0.213s-0.050 0.412-0.075 0.889c-0.065 1.262 0.153 2.065 0.633 2.339 0.231 0.132 0.25 0.132 0.451-0.004z">
   </path>
   <path fill="#000" style="fill: var(--color1, #000)"
      d="M16.777 25.622c-0.121-0.164-0.227-1.163-0.162-1.524l0.055-0.305 0.493 0.227-0.044 0.52c-0.102 1.215-0.144 1.35-0.342 1.082z">
   </path>
   <path fill="#fff" style="fill: var(--color2, #fff)"
      d="M17.705 22.048c0.037-0.717 0.028-0.994-0.035-1.022-0.047-0.021-0.459-0.091-0.916-0.156s-0.895-0.131-0.973-0.148c-0.134-0.028-0.132-0.019 0.020 0.16 0.302 0.354 0.467 0.797 0.486 1.305l0.018 0.482 0.63 0.177c0.347 0.098 0.65 0.179 0.674 0.181s0.067-0.439 0.095-0.98z">
   </path>
   <path fill="#000" style="fill: var(--color1, #000)"
      d="M16.906 22.454c-0.027-0.020-0.050-0.138-0.050-0.263s-0.034-0.356-0.075-0.514c-0.041-0.158-0.062-0.296-0.046-0.308s0.117-0.005 0.224 0.015c0.194 0.035 0.195 0.039 0.195 0.571 0 0.41-0.023 0.535-0.1 0.535-0.055 0-0.122-0.016-0.149-0.036z">
   </path>
   <path fill="#000" style="fill: var(--color1, #000)"
      d="M72.392 27.653c-0.141-0.107-0.35-0.229-0.463-0.272l-0.205-0.078v-2.242c0-2.161 0.005-2.244 0.144-2.298 0.079-0.031 0.18-0.056 0.224-0.056 0.055 0 0.080 0.496 0.080 1.574v1.574l0.635 0.559c0.349 0.308 0.635 0.576 0.635 0.596 0 0.063-0.684 0.836-0.74 0.836-0.029 0-0.168-0.087-0.31-0.194z">
   </path>
   <path fill="#000" style="fill: var(--color1, #000)"
      d="M61.861 26.847l-1.241-0.78 0.174-0.26c0.354-0.529 0.441-1.051 0.442-2.641 0-0.803-0.027-1.89-0.061-2.416l-0.061-0.955 1.168-0.574c0.642-0.316 1.195-0.574 1.227-0.574s0.142 0.091 0.243 0.203c0.33 0.364 1.831 2.251 2.049 2.576l0.213 0.317-0.717 0.494c-0.394 0.272-1.076 0.701-1.516 0.954l-0.799 0.46 0.023 1.163c0.020 1.034 0.040 1.187 0.172 1.38 0.127 0.184 0.188 0.219 0.415 0.233 0.256 0.016 0.424-0.049 1.308-0.502 0.133-0.068 0.445 0.143 0.383 0.26-0.044 0.083-2.062 1.445-2.138 1.443-0.024-0.001-0.601-0.352-1.284-0.781z">
   </path>
   <path fill="#fff" style="fill: var(--color2, #fff)"
      d="M63.636 22.404l0.63-0.357-0.129-0.144c-0.071-0.079-0.375-0.411-0.676-0.738l-0.547-0.595v1.095c0 0.602 0.020 1.095 0.045 1.095s0.329-0.161 0.676-0.357z">
   </path>
   <path fill="#000" style="fill: var(--color1, #000)"
      d="M63.288 21.877c0-0.182 0.082-0.215 0.209-0.084 0.093 0.096 0.094 0.121 0.007 0.161-0.165 0.076-0.215 0.058-0.215-0.077z">
   </path>
   <path fill="#000" style="fill: var(--color1, #000)"
      d="M56.218 25.771c-1.248-0.8-1.248-0.799-1.15-1.018 0.324-0.719 0.488-1.997 0.491-3.834 0.003-1.435-0.010-1.613-0.128-1.743-0.116-0.129-0.154-0.139-0.335-0.089-0.174 0.048-0.224 0.039-0.338-0.064-0.074-0.066-0.123-0.143-0.11-0.172s0.381-0.232 0.818-0.451l0.794-0.399 1.203 0.932 0.202-0.096c0.111-0.053 0.452-0.226 0.758-0.385l0.556-0.289 0.199 0.229c0.802 0.925 1.213 1.458 1.155 1.494-0.355 0.225-1.362 0.818-1.389 0.818-0.019 0-0.247-0.198-0.505-0.44l-0.471-0.44-0.138 0.129c-0.541 0.507-0.846 1.949-0.667 3.159 0.151 1.017 0.424 1.581 0.844 1.738 0.211 0.079 0.251 0.079 0.49-0.004 0.143-0.049 0.283-0.070 0.311-0.046s0.124 0.114 0.214 0.201c0.157 0.151 0.158 0.162 0.031 0.264-0.145 0.117-1.048 0.622-1.604 0.896l-0.352 0.174z">
   </path>
   <path fill="#000" style="fill: var(--color1, #000)"
      d="M22.543 25.918c-0.46-0.264-0.608-0.379-0.572-0.444 0.027-0.049 0.081-0.323 0.121-0.609 0.084-0.595 0.057-5.212-0.031-5.275-0.032-0.023-0.225 0.010-0.43 0.072-0.36 0.11-0.375 0.111-0.446 0.014-0.121-0.164-0.096-0.193 0.409-0.481 0.44-0.251 1.027-0.719 1.1-0.878 0.048-0.104 0.412-0.008 0.699 0.185 0.143 0.096 0.337 0.313 0.431 0.482l0.171 0.308 1.039-0.754c0.571-0.415 1.066-0.754 1.099-0.754s0.299 0.131 0.592 0.291l0.531 0.291 0.288-0.264c0.159-0.145 0.308-0.264 0.331-0.264s0.14 0.050 0.258 0.111l0.215 0.111-0.649 0.941-0.049 2.813c-0.030 1.693-0.022 2.843 0.019 2.889 0.057 0.062 0.108 0.055 0.293-0.041 0.282-0.146 0.319-0.144 0.49 0.026l0.14 0.139-0.363 0.279c-0.938 0.721-1.335 1.009-1.39 1.009-0.033 0-0.21-0.1-0.394-0.223-0.262-0.175-0.366-0.299-0.484-0.574-0.141-0.33-0.149-0.503-0.149-2.934 0-2.671-0.020-2.87-0.306-2.981-0.201-0.078-0.345-0.008-0.924 0.449l-0.499 0.393 0.037 2.137c0.036 2.089 0.059 2.306 0.313 3.037 0.044 0.128-0.011 0.18-0.529 0.5-0.318 0.197-0.615 0.357-0.66 0.356s-0.361-0.162-0.703-0.358z">
   </path>
   <path fill="#000" style="fill: var(--color1, #000)"
      d="M29.503 25.792c-0.268-0.079-0.542-0.367-0.596-0.627-0.149-0.723 0.351-1.793 1.429-3.056 0.221-0.259 0.422-0.508 0.446-0.554 0.027-0.051-0.101-0.213-0.335-0.424-0.698-0.628-1.050-1.55-1.050-2.752 0-1.334 0.41-2.358 1.312-3.281 0.61-0.624 1.404-1.045 2.372-1.26 1.023-0.227 2.172-0.108 3.501 0.362l0.728 0.257 0.852-0.529c0.469-0.291 0.904-0.529 0.968-0.529s0.151 0.048 0.194 0.107c0.065 0.088 0.036 0.142-0.173 0.311-0.138 0.112-0.357 0.311-0.487 0.442l-0.235 0.238v4.645c0 2.555 0.020 4.645 0.044 4.645s0.181-0.085 0.349-0.189c0.168-0.104 0.361-0.189 0.43-0.189 0.158 0 0.371 0.169 0.371 0.294 0 0.195-0.612 0.946-0.967 1.187-0.853 0.578-1.627 0.416-2.331-0.488l-0.233-0.299-1.829 1.323-0.623-0.325c-0.842-0.439-1.192-0.577-1.873-0.742-0.621-0.15-0.855-0.143-1.075 0.033-0.109 0.087-0.134 0.206-0.136 0.64-0.002 0.488-0.018 0.545-0.184 0.673-0.189 0.146-0.547 0.182-0.87 0.087z">
   </path>
   <path fill="#fff" style="fill: var(--color2, #fff)"
      d="M35.229 23.976c0.132-0.041 0.366-0.167 0.52-0.28l0.28-0.205v-1.885l-0.28 0.030c-0.154 0.017-0.912 0.072-1.686 0.122l-1.406 0.092-0.442 0.639c-0.243 0.352-0.442 0.66-0.442 0.685s0.126 0.074 0.28 0.107c0.154 0.034 0.732 0.22 1.284 0.414 1.074 0.378 1.41 0.428 1.891 0.279z">
   </path>
   <path fill="#000" style="fill: var(--color1, #000)"
      d="M34.138 23.305c-0.28-0.076-1.164-0.309-1.363-0.36-0.067-0.017 0.414-0.73 0.504-0.749 0.062-0.013 0.54-0.039 1.064-0.059l0.952-0.037v0.522c0 0.482-0.014 0.532-0.183 0.655-0.22 0.159-0.463 0.166-0.974 0.028z">
   </path>
   <path fill="#fff" style="fill: var(--color2, #fff)"
      d="M34.548 22.761c0-0.094-0.048-0.108-0.355-0.104l-0.355 0.004 0.299 0.1c0.385 0.129 0.411 0.129 0.411 0z"></path>
   <path fill="#fff" style="fill: var(--color2, #fff)"
      d="M36.022 20.383c0.010-0.002 0.018-0.776 0.018-1.721l-0.001-1.718-0.957 1.299c-0.526 0.714-1.131 1.519-1.343 1.788s-0.386 0.501-0.386 0.515c0 0.018 2.513-0.135 2.669-0.163z">
   </path>
   <path fill="#000" style="fill: var(--color1, #000)"
      d="M34.697 19.816c0-0.013 0.143-0.213 0.317-0.446l0.317-0.423 0.022 0.373c0.029 0.487 0.007 0.519-0.356 0.519-0.166 0-0.301-0.010-0.301-0.023z">
   </path>
   <path fill="#fff" style="fill: var(--color2, #fff)"
      d="M31.717 20.285c0.065-0.082 0.58-0.729 1.146-1.439 0.707-0.888 1.004-1.308 0.951-1.346-0.121-0.088-0.628-0.065-0.939 0.041-0.156 0.054-0.406 0.217-0.555 0.362l-0.272 0.265-0.023-0.254c-0.030-0.331 0.216-0.913 0.511-1.209 0.158-0.158 0.362-0.275 0.647-0.369 0.368-0.122 0.482-0.134 0.999-0.109l0.584 0.029 0.371-0.449-0.313-0.107c-0.248-0.085-0.475-0.107-1.097-0.108-0.679-0.001-0.827 0.015-1.108 0.124-0.72 0.278-1.233 0.807-1.59 1.635-0.252 0.585-0.252 1.635-0.002 2.214 0.191 0.442 0.449 0.868 0.524 0.868 0.026-0 0.101-0.067 0.166-0.149z">
   </path>
   <path fill="#000" style="fill: var(--color1, #000)"
      d="M31.676 19.311c-0.028-0.052-0.071-0.274-0.094-0.494l-0.043-0.399 0.199 0.095c0.133 0.063 0.273 0.084 0.422 0.062 0.123-0.018 0.223-0.018 0.223 0 0 0.042-0.6 0.83-0.632 0.83-0.013 0-0.047-0.043-0.076-0.095z">
   </path>
   <path fill="#000" style="fill: var(--color1, #000)"
      d="M50.252 25.364c-0.712-0.498-1.301-0.79-1.931-0.955-0.205-0.054-0.384-0.103-0.396-0.11s0.038-0.154 0.112-0.329c0.123-0.29 0.133-0.529 0.113-2.779l-0.022-2.462 1.72-0.987-0.844-0.724c-0.464-0.398-0.9-0.757-0.969-0.798-0.108-0.064-0.125-0.204-0.125-1.052v-0.978l0.27 0.186c0.148 0.103 1.276 0.972 2.507 1.931s2.267 1.745 2.303 1.745c0.036 0 0.187-0.077 0.334-0.171l0.269-0.171 0.382 0.277-0.43 0.408-0.020 3.199-0.020 3.199-0.682 0.24c-0.375 0.132-0.951 0.368-1.281 0.525s-0.601 0.283-0.604 0.282c-0.003-0.001-0.312-0.217-0.687-0.479z">
   </path>
   <path fill="#fff" style="fill: var(--color2, #fff)"
      d="M51.643 21.924v-2.459l-0.576-0.449c-0.317-0.247-0.597-0.455-0.623-0.464s-0.17 0.119-0.32 0.283l-0.273 0.298 0.001 4.411 0.279 0.097c0.154 0.053 0.548 0.24 0.876 0.414s0.606 0.32 0.616 0.322c0.010 0.003 0.019-1.102 0.019-2.454z">
   </path>
   <path fill="#000" style="fill: var(--color1, #000)"
      d="M50.766 23.073l-0.168-0.059v-3.358l0.448 0.311v1.586c0 0.872-0.025 1.584-0.056 1.582s-0.132-0.030-0.224-0.062z">
   </path>
   <path fill="#000" style="fill: var(--color1, #000)"
      d="M63.925 25.717c-0.116-0.061-0.149-0.188-0.203-0.771-0.036-0.384-0.055-0.736-0.044-0.783 0.027-0.107 2.659-1.793 2.742-1.756 0.033 0.015 0.078 0.093 0.099 0.173 0.029 0.111-0.030 0.212-0.244 0.42-0.53 0.514-0.867 1.099-1.084 1.879-0.132 0.475-0.307 0.677-0.723 0.835-0.252 0.095-0.367 0.096-0.543 0.003z">
   </path>
   <path fill="#fff" style="fill: var(--color2, #fff)"
      d="M64.593 24.452c0.095-0.272 0.093-0.281-0.043-0.228-0.118 0.046-0.14 0.112-0.133 0.391 0.005 0.185 0.024 0.288 0.043 0.228s0.079-0.236 0.133-0.391z">
   </path>
   <path fill="#000" style="fill: var(--color1, #000)"
      d="M41.098 24.906l-0.578-0.387 0.077-0.235c0.12-0.369 0.219-2.2 0.22-4.079 0.002-1.915 0.034-1.815-0.517-1.611l-0.288 0.107-0.119-0.132c-0.162-0.18-0.153-0.206 0.109-0.318 0.427-0.183 1.078-0.613 1.265-0.836 0.213-0.254 0.365-0.278 0.733-0.116 0.228 0.101 0.332 0.227 0.655 0.793 0.062 0.109 0.15 0.061 1.168-0.641l1.101-0.759 1.047 0.673 0.683-0.406 0.377 0.273-0.651 0.795-0.021 2.813c-0.011 1.547-0.004 2.843 0.015 2.88 0.028 0.052 0.090 0.054 0.273 0.008 0.213-0.054 0.252-0.047 0.376 0.070 0.076 0.071 0.13 0.154 0.12 0.184s-0.431 0.345-0.936 0.701c-0.766 0.54-0.939 0.638-1.045 0.59-0.159-0.072-0.457-0.454-0.558-0.715-0.044-0.115-0.095-1.407-0.121-3.1-0.043-2.753-0.053-2.908-0.187-3.016-0.078-0.063-0.191-0.114-0.251-0.114s-0.369 0.184-0.687 0.408l-0.578 0.408-0.050 1.364c-0.053 1.448 0.043 3.385 0.185 3.745l0.086 0.216-0.55 0.37c-0.303 0.203-0.601 0.39-0.663 0.414-0.082 0.032-0.269-0.060-0.69-0.343z">
   </path>
   <path fill="#000" style="fill: var(--color1, #000)"
      d="M20.92 25.125c-0.062-0.118-0.074-4.167-0.013-4.326 0.082-0.212 0.32-0.2 0.381 0.020 0.081 0.295 0.054 4.157-0.031 4.271-0.088 0.119-0.282 0.139-0.338 0.035z">
   </path>
   <path fill="#000" style="fill: var(--color1, #000)"
      d="M59.574 24.762c-0.436-0.405-0.475-0.427-0.646-0.37-0.262 0.086-0.533 0.019-0.629-0.156-0.172-0.315-0.329-1.15-0.334-1.773-0.005-0.628 0.125-1.352 0.252-1.409 0.034-0.015 0.193 0.074 0.354 0.199l0.292 0.227 0.638-0.361c0.351-0.198 0.655-0.361 0.676-0.361s0.084 0.177 0.139 0.392c0.155 0.608 0.131 2.564-0.041 3.341-0.076 0.342-0.16 0.64-0.187 0.661s-0.257-0.155-0.513-0.391z">
   </path>
   <path fill="#fff" style="fill: var(--color2, #fff)"
      d="M59.735 23.063c0.025-0.419 0.019-0.903-0.011-1.074l-0.056-0.311-0.411 0.241c-0.226 0.133-0.453 0.242-0.504 0.243-0.065 0.002-0.093 0.109-0.093 0.35 0 0.339 0.132 1.172 0.193 1.216 0.017 0.012 0.096-0.021 0.177-0.074 0.141-0.093 0.153-0.090 0.334 0.059 0.103 0.085 0.189 0.179 0.191 0.209s0.033 0.020 0.070-0.022 0.086-0.419 0.111-0.839z">
   </path>
   <path fill="#000" style="fill: var(--color1, #000)"
      d="M24.877 24.291c-0.033-0.053-0.074-0.884-0.092-1.845-0.029-1.611-0.022-1.756 0.099-1.853 0.072-0.058 0.16-0.105 0.195-0.105 0.101 0 0.042 3.855-0.059 3.88-0.046 0.011-0.111-0.023-0.144-0.077z">
   </path>
   <path fill="#000" style="fill: var(--color1, #000)"
      d="M54.308 24.241c-0.065-0.047-0.066-0.989-0.003-2.82 0.046-1.317 0.059-1.42 0.183-1.42 0.095 0 0.149 0.057 0.185 0.197 0.070 0.271-0.014 2.559-0.122 3.32-0.088 0.622-0.146 0.794-0.244 0.723z">
   </path>
   <path fill="#000" style="fill: var(--color1, #000)"
      d="M43.282 21.665v-2.022l0.45-0.312-0.039 4.323-0.411 0.034v-2.022z"></path>
   <path fill="#000" style="fill: var(--color1, #000)"
      d="M28.354 21.548c-0.001-1.099 0.013-1.987 0.032-1.973s0.134 0.222 0.257 0.464c0.295 0.58 0.691 1.143 0.94 1.337l0.201 0.157-0.198 0.249c-0.109 0.137-0.43 0.59-0.714 1.007l-0.516 0.757-0.002-1.997z">
   </path>
   <path fill="#000" style="fill: var(--color1, #000)"
      d="M47.197 23.137c-0.039-0.043-0.081-0.843-0.094-1.778-0.025-1.766-0.022-1.788 0.279-1.79 0.089-0.001 0.098 0.251 0.057 1.663-0.048 1.654-0.1 2.065-0.242 1.905z">
   </path>
   <path fill="#000" style="fill: var(--color1, #000)"
      d="M39.49 22.69l-0.315-0.233 0.039-3.695 0.781 0.67 0.002 1.745c0.001 1.39-0.018 1.745-0.095 1.745-0.053 0-0.238-0.105-0.412-0.233z">
   </path>
</svg>