<svg xmlns="http://www.w3.org/2000/svg" xmlns:xlink="http://www.w3.org/1999/xlink" viewBox="0 0 79 32">
   <path fill="#000" style="fill: var(--color1, #000)"
      d="M1.103 0v0.906h-1.103v6.115h1.103v2.898c0 2.391-0.010 3.567 0.088 4.412s0.612 1.596 0.929 1.904c0.319 0.309 1.030 0.791 1.803 0.895s1.735 0.093 3.68 0.096l3.735 0.006 2.468-1.135c0.341 0.351 0.767 0.599 1.244 0.81 0.487 0.217 1.105 0.32 1.892 0.312 1.149-0.012 2.225-0.231 3.145-0.7 0.204 0.141 0.408 0.282 0.648 0.389 0.487 0.217 1.105 0.32 1.892 0.312h5.164c0.787 0.008 1.404-0.095 1.892-0.312 0.34-0.151 0.931-0.366 1.445-1.044 0.49 0.708 1.267 1.368 1.66 1.368h8.537c0.778 0 1.535-0.563 1.67-1.066 0.168 0.507 0.898 1.066 1.535 1.066h8.457c1.591-0.398 2.035-1.314 2.258-2.568 0.052 0.062 0.378 1.113 0.837 1.54 0.319 0.309 1.091 0.821 1.865 0.926s1.735 0.093 3.68 0.096l3.736 0.006 2.221-1.022c0.2 0.233 0.51 0.47 0.911 0.576 0.688 0.287 1.349 0.349 1.981 0.374 0.72 0.029 1.419 0.019 1.921 0.066l0.065 0.006h0.065c2.313-0.002 3.472 0.004 4.308-0.080s1.553-0.472 1.911-0.753c0.144-0.113 0.334-0.223 0.583-0.513s0.419-0.713 0.483-1.071c0.128-0.715 0.096-1.485 0.11-3.236l0.027-3.488-0.392-0.648c-0.038-0.063-0.108-0.112-0.152-0.173h0.535v-2.773c0-0.881 0.019-1.423-0.173-2.048s-0.72-1.134-1.119-1.415c-0.371-0.262-1.018-0.586-1.752-0.668s-1.673-0.077-3.5-0.077h-3.606l-0.739 0.337c-0.369 0.168-0.709 0.358-1.005 0.598v-0.318h-5.685v-0.906h-7.234v0.906h-1.103c-0.235-0.229-0.5-0.601-1.58-0.601h-7.428c-1.028 0.116-1.72 0.51-2.054 1.198-0.338-0.491-0.664-0.986-1.719-1.198-3.563-0.134-7.792 0-7.792 0-0.882 0.207-1.25 0.683-1.473 1.235v-1.235l-18.956 0v0.601h-4.685v-0.906h-3.617z">
   </path>
   <path fill="#fff" style="fill: var(--color2, #fff)"
      d="M11.62 15.685c0.551-0.253 0.78-0.474 1.027-0.989l0.202-0.421 0.002-7.618h-4.497v5.435h-1.188v-6.424h5.685v-3.541h-5.685v-0.906h-4.582v0.906h-1.103v3.541h1.103v4.185c0 4.781 0.002 4.798 0.628 5.405 0.621 0.602 0.66 0.608 4.548 0.614l3.436 0.006 0.424-0.195z">
   </path>
   <path fill="#fff" style="fill: var(--color2, #fff)"
      d="M68.501 9.157c-0.26-0.234-0.060-6.001 0.085-6.295 0.076-0.485 0.664-1.145 1.281-1.273l0.373-0.077h3.309c3.651 0 3.788 0.015 4.474 0.498 0.679 0.478 0.745 0.692 0.745 2.422v1.486h-4.497v-0.824h-1.188v1.801l2.015 0.026c1.934 0.025 2.030 0.034 2.394 0.222 0.597 0.309 0.856 0.517 1.074 0.887l0.207 0.342-0.024 3.132c-0.027 3.511 0.014 3.282-0.683 3.83-0.682 0.535-0.762 0.544-5.386 0.547-1.237-0.117-2.853 0.054-3.682-0.383-0.848-0.171-0.508-3.586-0.508-3.586h4.593l0 0.431h1.188v-1.894l-3.579-0.023c-0.903-0.095-2.137-1.065-2.191-1.268z">
   </path>
   <path fill="#fff" style="fill: var(--color2, #fff)"
      d="M14.502 1.528l0.001 6.362c0 3.991 0.032 6.473 0.085 6.659 0.114 0.4 0.609 0.876 1.168 1.124 0.399 0.177 0.572 0.203 1.326 0.195 1.025-0.011 1.99-0.224 2.652-0.587 0.248-0.136 0.47-0.246 0.494-0.246 0.005 0 0.099-0.072 0.211-0.157 0.216 0.308 0.591 0.613 1.001 0.796 0.399 0.177 0.572 0.203 1.326 0.195h5.192c0.754 0.008 0.927-0.018 1.326-0.195 0.559-0.248 1.053-0.725 1.168-1.124 0.053-0.186 0.085-2.668 0.085-6.659l0.001-6.362h-4.582v5.394h-0.001v5.394h-1.188v-10.789h-4.582l0.001 6.362c0 1.836 0.008 3.306 0.020 4.427h-1.124v-10.789h-2.291z">
   </path>
   <path fill="#fff" style="fill: var(--color2, #fff)"
      d="M65.643 15.685c0.551-0.253 0.785-0.471 1.027-0.989l0.202-0.421 0.002-7.618h-4.497v5.435h-1.188v-6.424h5.685v-3.541h-5.685v-0.906h-4.582v0.906h-1.103v3.541h1.103v4.185c0 4.781 0.002 4.798 0.628 5.405 0.621 0.602 0.66 0.608 4.548 0.614l3.436 0.006 0.424-0.195z">
   </path>
   <path fill="#fff" style="fill: var(--color2, #fff)"
      d="M40.962 16.072c0.46-0.208 0.788-0.512 1.023-0.946 0.163-0.302 0.181-0.478 0.206-1.968l0.027-1.637h-4.395l-0.025 0.435-0.025 0.435h-1.16l-0.047-1.864h5.64v-3.773c0-2.998-0.023-3.828-0.113-4.043-0.154-0.369-0.809-0.927-1.274-1.085-0.293-0.1-1.95-0.148-3.615-0.147-1.679 0.001-3.366 0.054-3.663 0.155-0.525 0.179-1.245 0.878-1.318 1.279-0.028 0.154-0.040 2.891-0.027 6.081 0.024 5.762 0.026 5.803 0.203 6.132 0.234 0.434 0.563 0.738 1.023 0.946 0.356 0.161 0.53 0.169 3.77 0.169s3.415-0.008 3.77-0.169z">
   </path>
   <path fill="#000" style="fill: var(--color1, #000)"
      d="M36.608 6.858c-0.024-0.062-0.033-0.484-0.020-0.936l0.024-0.823h1.16v1.823l-0.56 0.024c-0.415 0.018-0.572-0.005-0.604-0.089z">
   </path>
   <path fill="#fff" style="fill: var(--color2, #fff)"
      d="M52.594 16.072c0.46-0.208 0.788-0.512 1.023-0.946 0.163-0.302 0.181-0.478 0.206-1.968l0.027-1.637h-4.395l-0.050 0.87h-1.16l-0.047-1.864h5.64v-3.773c0-2.998-0.023-3.828-0.113-4.043-0.154-0.369-0.809-0.927-1.274-1.085-0.293-0.1-1.95-0.148-3.615-0.147-1.679 0.001-3.366 0.054-3.663 0.155-0.525 0.179-1.245 0.878-1.318 1.279-0.028 0.154-0.040 2.891-0.027 6.081 0.024 5.762 0.026 5.803 0.203 6.132 0.234 0.434 0.563 0.738 1.023 0.946 0.356 0.161 0.53 0.169 3.77 0.169s3.415-0.008 3.77-0.169z">
   </path>
   <path fill="#000" style="fill: var(--color1, #000)"
      d="M48.239 6.858c-0.024-0.062-0.033-0.484-0.020-0.936l0.024-0.823h1.16v1.823l-0.56 0.024c-0.415 0.018-0.572-0.005-0.604-0.089z">
   </path>
   <path fill="#fff" style="fill: var(--color2, #fff)"
      d="M30.652 10.58l-0.341 0.197c-0.187 0.109-0.532 0.345-0.767 0.525-2.154 1.647-3.28 3.392-3.288 5.097l-0.004 0.634-0.394 0.264c-0.482 0.322-0.901 0.956-1.235 1.868-0.326 0.89-0.344 2.214-0.043 3.028 0.347 0.939 1.125 1.811 2.016 2.262l0.271 0.138-0.596 0.23c-1.293 0.498-2.281 1.423-2.52 2.358-0.286 1.117 0.076 2.549 0.859 3.399 0.879 0.954 2.279 1.224 4.158 0.804 0.714-0.16 1.929-0.584 2.531-0.884l0.393-0.194 1.513 0.848c0.832 0.467 1.567 0.847 1.635 0.847s0.71-0.419 1.427-0.932c1.354-0.969 2.374-1.853 3.2-2.777-0.027 0.978 0.321 1.541 0.321 1.541l0.563 0.587c0.64 0.668 1.381 0.613 2.084 0.35 0.76-0.284 1.481-1.12 1.481-1.715 0-0.425 1.883 0.245 3.649 1.3l0.585 0.348 0.331-0.217c0.183-0.12 0.722-0.494 1.198-0.833s0.882-0.6 0.903-0.581c0.021 0.019 0.174 0.167 0.339 0.33s0.54 0.397 0.834 0.521c1.068 0.449 2.276 0.2 3.357-0.667l0.803-0.897c0 0 1.373-2.903-0.886-2.45 0 0-0.053-7.873-0.053-9.256 0-1.879 0.019-2.115 0.213-2.527 0.117-0.25 0.348-0.558 0.514-0.687 0.362-0.28 0.642-0.668 0.642-0.89 0-0.288-0.316-0.62-0.804-0.847-0.607-0.282-0.779-0.242-1.891 0.436-1.306 0.797-1.106 0.762-2.319 0.412-3.619-1.041-7.069-0.552-9.166 1.299-0.82 0.724-1.651 1.998-2.041 3.13-0.173 0.502-0.315 0.981-0.315 1.065-0.039 0.545-0.078 1.108-0.064 1.672-0.749-0.536-1.687-1.063-2.642-1.344-0.296-0.087-0.538-0.182-0.538-0.21s0.484-0.974 1.075-2.101c0.591-1.127 1.065-2.056 1.052-2.065-0.064-0.044-2.033-0.973-2.203-1.039-0.174-0.068-0.217-0.052-0.348 0.133-0.086 0.12-0.201 0.195-0.27 0.176-0.067-0.019-1.269-0.63-2.67-1.36z">
   </path>
   <path fill="#000" style="fill: var(--color1, #000)"
      d="M33.526 30.094c-1.765-1.085-1.478-1.029-2.425-0.478-2.161 1.257-3.849 1.431-5.069 0.524-0.656-0.488-0.895-0.951-0.949-1.843-0.031-0.516-0.002-0.785 0.117-1.085 0.351-0.882 1.117-1.629 2.006-1.955 0.67-0.246 1.039-0.271 1.968-0.135 0.789 0.116 0.839 0.116 1.078 0.003 0.137-0.065 0.329-0.246 0.425-0.402l0.175-0.283-0.721-0.072c-1.944-0.193-3.056-0.72-3.817-1.809-0.429-0.613-0.595-1.168-0.597-1.987-0.002-1.083 0.517-2.271 1.249-2.858 0.285-0.228 0.339-0.322 0.339-0.579 0-0.783 0.596-2.322 1.213-3.13 0.797-1.044 2.133-2.267 2.363-2.162 0.067 0.031 0.605 0.318 1.196 0.638s1.694 0.907 2.453 1.304l1.378 0.722 0.19-0.27c0.105-0.149 0.223-0.27 0.263-0.27s0.287 0.099 0.55 0.22l0.477 0.22-1.006 1.932c-0.553 1.063-1.035 1.999-1.071 2.081-0.059 0.136 0.026 0.18 0.919 0.486 2.316 0.792 3.758 1.8 4.272 2.987 0.279 0.644 0.336 1.6 0.137 2.312-0.388 1.388-1.719 3.278-3.313 4.707-0.576 0.517-2.434 1.936-2.527 1.931-0.032-0.002-0.605-0.34-1.274-0.751z">
   </path>
   <path fill="#fff" style="fill: var(--color2, #fff)"
      d="M29.128 29.222c0.332-0.115 0.822-0.354 1.089-0.532l0.485-0.323-0.412-0.242c-0.739-0.434-1.664-0.849-2.085-0.934-0.336-0.068-0.462-0.067-0.676 0.008-0.553 0.193-0.874 0.822-0.733 1.436 0.199 0.868 0.965 1.061 2.332 0.588z">
   </path>
   <path fill="#000" style="fill: var(--color1, #000)"
      d="M28.072 28.775c-0.451-0.229-0.137-0.98 0.37-0.888 0.328 0.060 1.016 0.434 1.016 0.554 0 0.104-0.523 0.323-0.942 0.396-0.148 0.026-0.318 0.002-0.444-0.062z">
   </path>
   <path fill="#fff" style="fill: var(--color2, #fff)"
      d="M36.451 27.137c1.315-1.488 1.856-2.822 1.52-3.746-0.387-1.062-1.776-1.78-3.784-1.955l-0.602-0.052-0.193 0.384c-0.257 0.511-0.25 0.54 0.139 0.54 1.042 0 2.581 0.455 3.11 0.92 0.89 0.783 0.574 2.124-0.859 3.641l-0.424 0.449 0.301 0.172c0.165 0.094 0.307 0.172 0.315 0.172s0.223-0.236 0.479-0.525z">
   </path>
   <path fill="#fff" style="fill: var(--color2, #fff)"
      d="M34.388 26.223c0.2-0.233 0.348-0.505 0.377-0.692 0.045-0.287 0.023-0.326-0.316-0.572-0.407-0.295-1.077-0.44-1.858-0.403l-0.433 0.021-0.324 0.542c-0.178 0.298-0.291 0.55-0.251 0.56s0.578 0.228 1.196 0.485c0.617 0.256 1.158 0.461 1.202 0.454s0.228-0.185 0.408-0.396z">
   </path>
   <path fill="#000" style="fill: var(--color1, #000)"
      d="M33.079 25.743c-0.294-0.118-0.535-0.248-0.535-0.288s0.103-0.144 0.229-0.229c0.186-0.127 0.29-0.147 0.562-0.11 0.463 0.063 0.677 0.305 0.518 0.583-0.064 0.112-0.144 0.217-0.178 0.232s-0.302-0.069-0.596-0.187z">
   </path>
   <path fill="#fff" style="fill: var(--color2, #fff)"
      d="M32.073 21.772c0.108-0.201 0.184-0.374 0.168-0.386s-0.323-0.054-0.682-0.095c-1.409-0.158-2.383-0.716-3.131-1.792l-0.381-0.548 0.061 0.441c0.094 0.687 0.214 1.013 0.526 1.438 0.351 0.477 0.952 0.892 1.607 1.109 0.494 0.164 1.456 0.31 1.572 0.238 0.035-0.022 0.152-0.203 0.261-0.404z">
   </path>
   <path fill="#fff" style="fill: var(--color2, #fff)"
      d="M34.25 17.602c0.252-0.481 0.421-0.893 0.374-0.915s-0.852-0.433-1.789-0.912c-0.938-0.479-1.715-0.861-1.729-0.847s-0.133 0.209-0.265 0.435c-0.784 1.339-0.473 2.343 0.884 2.851 0.369 0.138 1.345 0.292 1.747 0.276l0.319-0.013 0.459-0.874z">
   </path>
   <path fill="#000" style="fill: var(--color1, #000)"
      d="M32.306 17.601c-0.157-0.050-0.404-0.192-0.549-0.317-0.233-0.2-0.257-0.265-0.21-0.552 0.091-0.56 0.12-0.566 0.907-0.215 1.012 0.452 0.988 0.426 0.785 0.834-0.146 0.294-0.206 0.344-0.41 0.342-0.131-0.002-0.367-0.043-0.524-0.093z">
   </path>
   <path fill="#000" style="fill: var(--color1, #000)"
      d="M41.328 29.997c-0.378-0.112-0.764-0.523-0.84-0.895-0.211-1.031 0.495-2.557 2.016-4.359 0.312-0.37 0.595-0.725 0.629-0.79 0.038-0.073-0.143-0.304-0.473-0.605-0.985-0.896-1.481-2.211-1.481-3.926 0-1.903 0.578-3.364 1.851-4.68 0.861-0.89 1.981-1.491 3.347-1.797 1.443-0.323 3.065-0.154 4.939 0.517l1.027 0.367 1.202-0.755c0.661-0.415 1.276-0.755 1.365-0.755s0.213 0.069 0.274 0.152c0.092 0.126 0.050 0.202-0.244 0.444-0.195 0.16-0.504 0.444-0.687 0.631l-0.332 0.34v6.626c0 3.644 0.028 6.626 0.062 6.626s0.256-0.122 0.493-0.27 0.51-0.27 0.606-0.27c0.223 0 0.524 0.241 0.524 0.419 0 0.278-0.863 1.349-1.364 1.693-1.203 0.825-2.295 0.594-3.289-0.696l-0.328-0.426-2.581 1.887-0.88-0.463c-1.188-0.626-1.682-0.824-2.643-1.059-0.876-0.214-1.206-0.204-1.517 0.047-0.153 0.124-0.189 0.294-0.192 0.913-0.003 0.697-0.025 0.777-0.259 0.96-0.267 0.208-0.772 0.259-1.228 0.124z">
   </path>
   <path fill="#fff" style="fill: var(--color2, #fff)"
      d="M49.407 27.407c0.186-0.058 0.517-0.238 0.734-0.399l0.395-0.293v-2.689l-0.395 0.043c-0.217 0.024-1.287 0.102-2.378 0.174l-1.983 0.131-0.624 0.912c-0.343 0.501-0.624 0.941-0.624 0.978s0.178 0.105 0.395 0.153c0.217 0.048 1.032 0.314 1.811 0.591 1.516 0.54 1.99 0.61 2.669 0.398z">
   </path>
   <path fill="#000" style="fill: var(--color1, #000)"
      d="M47.866 26.448c-0.395-0.108-1.642-0.441-1.923-0.513-0.094-0.024 0.584-1.042 0.712-1.068 0.087-0.018 0.762-0.056 1.501-0.085l1.343-0.052v0.745c0 0.688-0.020 0.759-0.259 0.934-0.31 0.227-0.653 0.237-1.374 0.040z">
   </path>
   <path fill="#fff" style="fill: var(--color2, #fff)"
      d="M48.446 25.672c0-0.134-0.068-0.154-0.5-0.149l-0.5 0.006 0.421 0.143c0.543 0.184 0.579 0.184 0.579 0z"></path>
   <path fill="#fff" style="fill: var(--color2, #fff)"
      d="M50.526 22.281c0.014-0.002 0.026-1.107 0.025-2.455l-0.001-2.451-1.35 1.852c-0.742 1.019-1.595 2.167-1.895 2.551s-0.545 0.715-0.545 0.735c0 0.026 3.545-0.193 3.765-0.232z">
   </path>
   <path fill="#000" style="fill: var(--color1, #000)"
      d="M48.656 21.472c0-0.018 0.201-0.305 0.448-0.637l0.448-0.604 0.031 0.533c0.041 0.695 0.010 0.741-0.502 0.741-0.234 0-0.425-0.015-0.425-0.033z">
   </path>
   <path fill="#fff" style="fill: var(--color2, #fff)"
      d="M44.452 22.14c0.092-0.116 0.819-1.040 1.616-2.053 0.998-1.267 1.416-1.866 1.341-1.921-0.171-0.125-0.886-0.093-1.324 0.059-0.22 0.076-0.572 0.309-0.783 0.517l-0.384 0.378-0.033-0.362c-0.043-0.472 0.305-1.303 0.721-1.724 0.223-0.226 0.511-0.392 0.912-0.527 0.519-0.174 0.68-0.192 1.41-0.155l0.824 0.041 0.524-0.641-0.442-0.152c-0.35-0.121-0.671-0.153-1.547-0.154-0.958-0.002-1.167 0.022-1.564 0.177-1.015 0.397-1.74 1.151-2.243 2.332-0.355 0.834-0.356 2.333-0.002 3.158 0.27 0.63 0.633 1.239 0.739 1.238 0.037-0 0.142-0.096 0.234-0.212z">
   </path>
   <path fill="#000" style="fill: var(--color1, #000)"
      d="M44.394 20.752c-0.040-0.074-0.1-0.391-0.133-0.704l-0.060-0.569 0.281 0.135c0.187 0.090 0.385 0.119 0.595 0.089 0.173-0.025 0.315-0.025 0.315 0 0 0.060-0.846 1.185-0.891 1.185-0.019 0-0.067-0.061-0.106-0.135z">
   </path>
</svg>