<svg xmlns="http://www.w3.org/2000/svg" xmlns:xlink="http://www.w3.org/1999/xlink" viewBox="0 0 150 59.999998">
   <path style="color:#000000;fill:#000000;stroke-width:5.32928;-inkscape-stroke:none"
      d="M 2.2503884,6.6245415e-5 V 1.8489704 H -3.0494486e-6 v 6.236853 6.2378726 H 2.2503884 v 5.912803 c 0,4.877221 -0.020772,7.276245 0.179609,9.000468 0.2003463,1.724217 1.2479614,3.256011 1.8943355,3.883416 0.6504593,0.631331 2.1009077,1.613274 3.67881,1.826346 1.577885,0.213072 3.5396261,0.189287 7.5065791,0.195862 l 7.620686,0.01232 1.417848,-0.652198 h 0.0012 l 3.615415,-1.663297 c 0.696631,0.716239 1.565514,1.221023 2.537761,1.653042 0.994179,0.441781 2.253692,0.652316 3.859469,0.635789 2.344979,-0.02414 4.538617,-0.472173 6.416254,-1.428467 0.416803,0.287765 0.832561,0.575333 1.321708,0.792678 0.994173,0.441781 2.254748,0.652316 3.860525,0.635789 H 56.69516 c 1.605765,0.01652 2.865267,-0.19398 3.859463,-0.635789 0.692592,-0.307752 1.333588,-0.650523 1.898571,-1.079809 v 1.741231 h 14.736358 v -2.007848 l 1.883776,1.238753 3.29106,0.759871 13.599539,0.01025 5.137863,-2.364716 c 0.10622,0.125986 0.20893,0.239708 0.30217,0.330198 0.65045,0.631331 2.10092,1.61328 3.6788,1.826346 1.57789,0.213078 3.53963,0.189288 7.50658,0.195862 l 7.62174,0.01232 1.41785,-0.652198 0.001,-0.0011 3.11252,-1.432572 c 0.40838,0.475602 1.04005,0.958578 1.85947,1.174154 1.40447,0.585794 2.75238,0.71108 4.04119,0.76294 1.46877,0.05911 2.89569,0.03903 3.91864,0.135361 l 0.13206,0.01232 h 0.13207 c 4.71811,-0.0028 7.08328,0.009 8.7892,-0.164075 1.70592,-0.173102 3.16793,-0.962167 3.89856,-1.536139 0.29399,-0.230954 0.68151,-0.455306 1.18859,-1.046991 0.50706,-0.59167 0.85447,-1.45559 0.98467,-2.185258 0.26041,-1.459319 0.19645,-3.028832 0.22398,-6.600889 l 0.0549,-7.11567 -0.79978,-1.321819 c -0.0777,-0.128282 -0.21935,-0.229123 -0.30957,-0.352757 h 1.09139 V 9.1737646 c 0,-1.796563 0.0392,-2.9025318 -0.35288,-4.1777218 -0.392,-1.2751899 -1.46822,-2.3131421 -2.28208,-2.8866771 -0.75788,-0.5340467 -2.07695,-1.19495887 -3.57421,-1.36181102 -1.49727,-0.16683534 -3.41207,-0.15688907 -7.13997,-0.15688907 h -7.3555 L 127.7346,1.2777203 c -0.75287,0.342721 -1.44641,0.7295281 -2.04964,1.2203006 V 1.8489032 h -8.50395 -3.09349 V -9.5915547e-7 H 106.7086 99.329858 V 1.8489032 h -2.24933 -7.240339 V -9.5915547e-7 H 77.189414 62.453055 V 0.62347825 h -0.63919 -4.501839 -0.08663 -4.305324 -2.984677 -4.307436 -4.306379 -3.158996 -4.217625 -7.3798 V 1.8489032 h -6.463793 -3.09455 V -9.5915553e-7 H 9.6280708 Z"
      id="path6875" />
   <path style="color:#000000;fill:#ffffff;stroke-width:2.39818;-inkscape-stroke:none"
      d="m 65.484545,2.4948343 h 9.327168 V 32.397615 h -9.327168 z" id="rect3818" />
   <path style="color:#000000;fill:#ffffff;stroke-width:0.568456;-inkscape-stroke:none"
      d="m 23.717028,31.99945 c 1.124079,-0.517067 1.591242,-0.966816 2.095022,-2.016944 l 0.411552,-0.857877 0.0017,-7.770529 0.0017,-7.770528 h -4.58716 -4.58716 v 5.544377 5.544377 H 15.841041 14.629339 V 18.11988 11.567435 h 5.798862 5.798863 V 7.9551889 4.3429432 H 20.428201 14.629339 V 3.4188804 2.4948175 H 9.9556286 5.2819184 V 3.4188804 4.3429432 H 4.156766 3.0316135 V 7.9551889 11.567435 H 4.156766 5.2819184 v 8.538088 c 0,9.753702 0.00404,9.787853 1.2812486,11.027582 1.2660562,1.228835 1.3464671,1.239694 9.277874,1.252844 l 7.010566,0.01165 0.865502,-0.39812 z"
      id="path6958" />
   <path style="color:#000000;fill:#ffffff;stroke-width:0.568456;-inkscape-stroke:none"
      d="m 126.62609,18.681699 c 5.7e-4,-8.142282 0.0655,-12.4619673 0.17422,-12.8417628 0.23375,-0.8167651 1.23954,-1.7834973 2.40979,-2.3162055 l 0.96358,-0.4386274 h 6.75091 c 7.44803,0 7.7279,0.031194 9.12683,1.0169899 1.38468,0.9757712 1.51885,1.4121865 1.51885,4.9407233 v 3.0308985 h -4.58716 -4.58716 V 11.233657 10.3936 h -1.21171 -1.2117 v 1.837138 1.837132 l 4.11114,0.05298 c 3.94554,0.05085 4.14229,0.06911 4.88477,0.453227 1.21887,0.630581 1.73818,1.059061 2.19199,1.808615 l 0.42183,0.696749 -0.0493,6.389649 c -0.0552,7.16301 0.028,6.696145 -1.3942,7.813444 -1.39038,1.092237 -1.55551,1.108993 -10.98847,1.115064 -2.52333,-0.237742 -5.8203,0.10928 -7.51094,-0.781953 -1.72958,-0.348781 -1.03616,-7.316041 -1.03616,-7.316041 h 9.36932 l 3e-5,0.879002 h 2.42341 v -3.864263 l -7.30072,-0.04643 c -1.84266,-0.194546 -4.15574,-1.355813 -4.46917,-2.586239 z"
      id="path6938" />
   <path style="color:#000000;fill:#ffffff;stroke-width:0.568456;-inkscape-stroke:none"
      d="m 29.597103,3.1182799 0.0012,12.9782271 c 5.43e-4,8.142282 0.06564,13.204478 0.17433,13.584273 0.233345,0.815343 1.242832,1.787563 2.38245,2.293955 0.81457,0.361964 1.166823,0.413723 2.705755,0.397879 2.090654,-0.0215 4.059071,-0.457495 5.410437,-1.197736 0.505285,-0.276821 0.958883,-0.502478 1.007923,-0.502478 0.01073,0 0.203,-0.147441 0.43106,-0.320963 0.440575,0.62806 1.204871,1.251209 2.042256,1.623298 0.81457,0.361964 1.166817,0.413723 2.705749,0.397879 h 10.591626 c 1.538931,0.01585 1.891179,-0.0359 2.705743,-0.397879 1.139618,-0.506392 2.149116,-1.478612 2.382456,-2.293955 0.108695,-0.379795 0.173752,-5.441991 0.174323,-13.584273 l 0.0012,-12.9782271 h -0.173267 -4.500783 -0.08663 -4.586364 V 14.122496 h -0.0012 V 25.127738 H 51.754546 50.542717 V 17.81928 14.122496 3.1182799 h -4.587414 -4.587408 -0.173274 l 0.0012,12.9782271 c 2.6e-4,3.745474 0.0157,6.745234 0.0412,9.031231 H 40.1562 38.94437 V 14.122496 3.1182799 h -4.672995 z"
      id="path6934" />
   <path style="color:#000000;fill:#ffffff;stroke-width:0.568456;-inkscape-stroke:none"
      d="m 96.549254,31.999467 c 1.12408,-0.517067 1.591243,-0.966817 2.095023,-2.016944 l 0.411552,-0.857877 0.0017,-7.770529 0.0017,-7.770528 h -4.58716 -4.58716 v 5.544377 5.544377 h -1.211703 -1.211703 v -6.552446 -6.552446 h 5.798863 5.798863 V 7.9552057 4.34296 H 93.260428 87.461565 V 3.4188972 2.4948343 h -4.67371 -4.67371 V 3.4188972 4.34296 H 76.988992 75.86384 v 3.6122457 3.6122453 h 1.125152 1.125153 v 8.538089 c 0,9.753702 0.004,9.787853 1.281248,11.027581 1.266057,1.228836 1.346467,1.239695 9.277875,1.252845 l 7.010565,0.01165 0.865502,-0.39812 z"
      id="path4232" />
   <path style="color:#000000;fill:#ffffff;stroke-width:0.568456;-inkscape-stroke:none"
      d="m 120.79681,31.999461 c 1.12408,-0.517066 1.59125,-0.966816 2.09503,-2.016944 l 0.41155,-0.857877 0.002,-7.770529 0.002,-7.770528 h -4.58716 -4.58716 v 5.544377 5.544377 h -1.2117 -1.2117 v -6.552446 -6.552445 h 5.79886 5.79886 V 7.9552001 4.3429544 h -5.79886 -5.79886 V 3.4188916 2.4948287 h -4.67371 -4.67371 v 0.9240629 0.9240628 h -1.12516 -1.12515 v 3.6122457 3.6122459 h 1.12515 1.12516 v 8.538088 c 0,9.753702 0.004,9.787853 1.28124,11.027582 1.26606,1.228835 1.34647,1.239694 9.27788,1.252844 l 7.01056,0.01165 0.86551,-0.39812 z"
      id="path4234" />
   <g id="g4795" transform="matrix(1.2529473,0,0,1.2529473,41.727667,-60.877605)">
      <path id="path884" style="color:#000000;fill:#ffffff;stroke-width:0.397204;-inkscape-stroke:none"
         d="m 12.566406,64.419922 -0.509765,0.294922 C 11.77668,64.877439 11.260728,65.230493 10.908203,65.5 7.6852126,67.964011 6.0004907,70.575554 5.9882812,73.126953 l -0.00586,0.949219 -0.5898438,0.394531 c -0.7210439,0.481722 -1.3486252,1.429885 -1.8476562,2.794922 -0.487093,1.332381 -0.5144619,3.313217 -0.064453,4.53125 0.5190991,1.40504 1.6829222,2.709416 3.0175781,3.384766 l 0.40625,0.207031 -0.8925781,0.34375 c -1.9347314,0.745573 -3.4132993,2.129241 -3.7714844,3.529297 -0.4276503,1.671607 0.1142937,3.815104 1.2851562,5.085937 1.3150032,1.427263 3.4101617,1.832333 6.2226563,1.203125 1.0685137,-0.239047 2.8860637,-0.874038 3.7871087,-1.322265 l 0.587891,-0.291016 2.263672,1.269531 c 1.244407,0.69816 2.345257,1.267578 2.447265,1.267578 0.102014,0 1.062899,-0.627324 2.134766,-1.394531 2.0255,-1.449771 3.552716,-2.773433 4.789062,-4.15625 -0.03971,1.463382 0.480469,2.306641 0.480469,2.306641 l 0.841797,0.878906 c 0.958376,0.999882 2.067079,0.916763 3.119141,0.523437 1.136905,-0.425058 2.216797,-1.6757 2.216797,-2.566406 0,-0.636215 2.817379,0.367351 5.460937,1.945313 l 0.875,0.521484 0.496094,-0.324219 c 0.273147,-0.179118 1.080472,-0.739776 1.792969,-1.246093 0.712499,-0.506305 1.320439,-0.89756 1.351562,-0.869141 0.03112,0.02846 0.260355,0.250558 0.507813,0.494141 0.247457,0.243583 0.808806,0.594667 1.248047,0.779297 1.597648,0.671566 3.406079,0.298691 5.023437,-0.998047 l 1.201172,-1.341797 c 0,0 2.054157,-4.344039 -1.326172,-3.666016 0,0 -0.08008,-11.782357 -0.08008,-13.851562 0,-2.812182 0.02897,-3.1648 0.318359,-3.78125 0.175493,-0.3738 0.521294,-0.835348 0.769532,-1.027344 0.541787,-0.419057 0.960937,-0.999572 0.960937,-1.332031 0,-0.430421 -0.473578,-0.928517 -1.203125,-1.267579 -0.90799,-0.421987 -1.166208,-0.362908 -2.830078,0.652344 -1.954413,1.192526 -1.654587,1.13965 -3.470703,0.617188 -5.416363,-1.558175 -10.578597,-0.826691 -13.716797,1.943359 -1.227529,1.083521 -2.471246,2.990603 -3.054688,4.683594 -0.258905,0.751277 -0.470703,1.468178 -0.470703,1.59375 -0.05816,0.8152 -0.11663,1.657498 -0.0957,2.501953 -1.12045,-0.801772 -2.52435,-1.590678 -3.953125,-2.011719 -0.442653,-0.130444 -0.804687,-0.27226 -0.804687,-0.314453 0,-0.04217 0.724555,-1.457669 1.609375,-3.144531 0.88482,-1.686869 1.592982,-3.076851 1.574218,-3.089844 -0.09584,-0.06639 -3.042844,-1.456149 -3.296875,-1.554687 -0.260464,-0.101031 -0.324109,-0.07742 -0.521484,0.199218 -0.12825,0.179755 -0.300466,0.292553 -0.404297,0.263672 -0.09985,-0.02778 -1.898418,-0.942802 -3.996094,-2.035156 z" />
      <path style="color:#000000;fill:#000000;stroke-width:0.397204;-inkscape-stroke:none"
         d="m 16.867267,93.623015 c -2.641304,-1.623853 -2.21239,-1.539242 -3.62857,-0.715712 -3.233787,1.880496 -5.7597423,2.141793 -7.5856917,0.784664 -0.98216,-0.729982 -1.3394622,-1.423471 -1.4207386,-2.757504 -0.047083,-0.772752 -0.00346,-1.174221 0.1750275,-1.623159 0.5259252,-1.320435 1.6722709,-2.437666 3.0024665,-2.926216 1.0028859,-0.368337 1.5545568,-0.406061 2.9455283,-0.201395 1.180654,0.173718 1.255866,0.173931 1.612441,0.0045 0.205713,-0.09769 0.492159,-0.368085 0.636554,-0.600864 L 12.866819,85.164065 11.78774,85.056667 C 8.8787655,84.76715 7.215017,83.978594 6.0754684,82.349264 5.4339872,81.432072 5.1844572,80.60153 5.1819761,79.37531 c -0.00346,-1.621355 0.7731875,-3.397936 1.869513,-4.277464 0.4259769,-0.341741 0.5078765,-0.481364 0.5078765,-0.865819 0,-1.172132 0.892367,-3.474477 1.8153787,-4.683767 1.1924707,-1.562321 3.1921097,-3.391949 3.5356787,-3.235065 0.100104,0.0457 0.905373,0.475175 1.789489,0.95436 0.884116,0.479191 2.535661,1.357382 3.670109,1.951537 l 2.062618,1.080286 0.284692,-0.40446 c 0.156581,-0.222458 0.33357,-0.404465 0.393313,-0.404465 0.05974,0 0.429912,0.148365 0.822602,0.3297 l 0.713987,0.329706 -1.505465,2.891252 c -0.828009,1.590184 -1.549185,2.991808 -1.602616,3.114719 -0.08818,0.202869 0.03866,0.269905 1.375548,0.726963 3.465943,1.184935 5.62398,2.693694 6.393174,4.469681 0.417576,0.964151 0.502153,2.395076 0.204495,3.459803 -0.580526,2.07651 -2.572058,4.906041 -4.957675,7.043784 -0.862692,0.773055 -3.642159,2.89757 -3.781153,2.890167 -0.04766,-0.0034 -0.9055,-0.50805 -1.906274,-1.12333 z"
         id="path886" />
      <path style="color:#000000;fill:#ffffff;stroke-width:0.397204;-inkscape-stroke:none"
         d="m 10.28617,92.317107 c 0.497265,-0.172004 1.230738,-0.530418 1.629936,-0.796464 l 0.725816,-0.48371 -0.616711,-0.362614 C 10.919302,90.024087 9.535543,89.403991 8.9048113,89.275994 8.4013027,89.173815 8.2141985,89.175993 7.8934205,89.287811 c -0.8270852,0.288262 -1.308235,1.230353 -1.0976526,2.14923 0.2975941,1.298622 1.4444649,1.587792 3.4904021,0.880089 z"
         id="path888" />
      <path style="color:#000000;fill:#000000;stroke-width:0.397204;-inkscape-stroke:none"
         d="m 8.7048458,91.64831 c -0.6741394,-0.342234 -0.2052509,-1.466617 0.5540077,-1.328495 0.4911493,0.08934 1.5197865,0.64998 1.5197865,0.828325 0,0.154951 -0.7821538,0.48413 -1.4089445,0.592974 -0.2214127,0.03842 -0.4764242,0.0028 -0.6648497,-0.0928 z"
         id="path890" />
      <path style="color:#000000;fill:#ffffff;stroke-width:0.397204;-inkscape-stroke:none"
         d="m 21.244307,89.196709 c 1.968012,-2.22684 2.778007,-4.22304 2.274585,-5.605645 -0.578825,-1.589713 -2.657835,-2.664096 -5.662598,-2.926277 l -0.90059,-0.07858 -0.289158,0.574801 c -0.384554,0.764407 -0.37343,0.807586 0.208084,0.807586 1.559467,0 3.862498,0.681398 4.653353,1.376798 1.332504,1.171655 0.858861,3.178406 -1.286153,5.449249 l -0.63492,0.672168 0.449766,0.256935 c 0.247372,0.14132 0.459449,0.257444 0.471283,0.258065 0.01183,0.0011 0.334194,-0.352673 0.716348,-0.785095 z"
         id="path892" />
      <path style="color:#000000;fill:#ffffff;stroke-width:0.397204;-inkscape-stroke:none"
         d="m 18.157419,87.829012 c 0.298864,-0.348948 0.520351,-0.755626 0.563846,-1.035309 0.06682,-0.429661 0.03502,-0.487143 -0.472968,-0.855335 -0.609192,-0.441534 -1.61168,-0.658761 -2.780483,-0.602483 l -0.64777,0.03119 -0.485466,0.81051 c -0.267013,0.445784 -0.436242,0.823088 -0.376072,0.838455 0.06016,0.0154 0.865225,0.341847 1.789015,0.725507 0.923791,0.383654 1.733185,0.689592 1.798646,0.679853 0.06547,-0.0097 0.340529,-0.276306 0.611252,-0.592386 z"
         id="path894" />
      <path style="color:#000000;fill:#000000;stroke-width:0.397204;-inkscape-stroke:none"
         d="m 16.197461,87.110668 c -0.439923,-0.176625 -0.799862,-0.370739 -0.799862,-0.431364 0,-0.06062 0.153944,-0.215037 0.342098,-0.343152 0.278732,-0.189791 0.434476,-0.220369 0.84087,-0.165116 0.692246,0.09413 1.013329,0.455681 0.775005,0.872696 -0.09616,0.168253 -0.216104,0.324403 -0.266546,0.347 -0.05043,0.02257 -0.451642,-0.103433 -0.891565,-0.280064 z"
         id="path896" />
      <path style="color:#000000;fill:#ffffff;stroke-width:0.397204;-inkscape-stroke:none"
         d="m 14.692878,81.169179 c 0.162294,-0.30018 0.275207,-0.560189 0.250927,-0.577791 -0.02429,-0.01764 -0.483245,-0.08132 -1.019908,-0.141611 C 11.815938,80.21297 10.357804,79.378346 9.2376891,77.76743 l -0.5705042,-0.820484 0.090728,0.659405 c 0.1413711,1.027463 0.3199876,1.515312 0.7876471,2.151258 0.525111,0.714071 1.423947,1.334621 2.404272,1.659914 0.739865,0.245503 2.178918,0.463196 2.353005,0.355954 0.05222,-0.0322 0.227748,-0.304117 0.390041,-0.604298 z"
         id="path898" />
      <path style="color:#000000;fill:#ffffff;stroke-width:0.397204;-inkscape-stroke:none"
         d="m 17.950033,74.928372 c 0.377538,-0.719643 0.629422,-1.335937 0.559743,-1.369539 -0.06967,-0.0336 -1.274543,-0.648059 -2.677482,-1.365451 -1.402938,-0.717398 -2.567153,-1.288038 -2.587146,-1.268095 -0.01996,0.01994 -0.19831,0.313039 -0.396256,0.651325 -1.172888,2.00441 -0.707484,3.506129 1.322366,4.266919 0.552484,0.207074 2.012205,0.43763 2.614237,0.41291 l 0.478109,-0.0196 0.686429,-1.30844 z"
         id="path900" />
      <path style="color:#000000;fill:#000000;stroke-width:0.397204;-inkscape-stroke:none"
         d="m 15.040741,74.927359 c -0.234765,-0.07412 -0.60412,-0.287457 -0.820796,-0.474089 -0.348041,-0.299794 -0.384692,-0.395992 -0.314489,-0.825614 0.136859,-0.837548 0.179327,-0.847612 1.357234,-0.321731 1.513752,0.675815 1.478145,0.637984 1.175294,1.248398 -0.217939,0.439277 -0.308834,0.515145 -0.613139,0.511763 -0.196492,-0.0022 -0.54934,-0.06461 -0.784104,-0.138727 z"
         id="path902" />
      <path style="color:#000000;fill:#000000;stroke-width:0.449749;-inkscape-stroke:none"
         d="m 28.542433,93.47695 c -0.566372,-0.167903 -1.143941,-0.782896 -1.257794,-1.339286 -0.315647,-1.54253 0.740788,-3.826775 3.017033,-6.523473 0.46699,-0.55326 0.890733,-1.08549 0.941659,-1.182734 0.05718,-0.109188 -0.213671,-0.455367 -0.708015,-0.904938 -1.47409,-1.340595 -2.21645,-3.308263 -2.21645,-5.874802 0,-2.847853 0.864679,-5.034067 2.770179,-7.003989 1.287883,-1.331442 2.964086,-2.231529 5.008804,-2.689628 2.159325,-0.483774 4.585952,-0.229807 7.391209,0.773559 l 1.53677,0.549662 1.799302,-1.129154 c 0.989622,-0.621038 1.909125,-1.129165 2.043354,-1.129165 0.134229,0 0.318967,0.102584 0.410534,0.227973 0.137867,0.188785 0.0752,0.302959 -0.364553,0.664156 -0.292068,0.239894 -0.754581,0.664861 -1.027807,0.944388 l -0.496767,0.508218 v 9.91599 c 0,5.453797 0.04191,9.916001 0.09316,9.916001 0.0512,0 0.383162,-0.181919 0.737618,-0.404268 0.354462,-0.222338 0.762566,-0.404268 0.906898,-0.404268 0.3336,0 0.784112,0.360092 0.784112,0.626731 0,0.416735 -1.291158,2.018994 -2.041419,2.533292 -1.800711,1.234357 -3.435012,0.888451 -4.921382,-1.041633 l -0.490946,-0.63749 -1.931066,1.411755 -1.931061,1.411756 -1.31638,-0.693302 c -1.777678,-0.936237 -2.517485,-1.232683 -3.954851,-1.584726 -1.310215,-0.320891 -1.805175,-0.305486 -2.269618,0.07059 -0.229486,0.185835 -0.28279,0.439267 -0.287423,1.366338 -0.0052,1.042635 -0.03774,1.16322 -0.387781,1.436269 -0.399619,0.311749 -1.155427,0.388339 -1.837317,0.186177 z"
         id="path2413" />
      <path style="color:#000000;fill:#ffffff;stroke-width:0.449749;-inkscape-stroke:none"
         d="m 40.632121,89.600591 c 0.278943,-0.0871 0.773137,-0.355662 1.098212,-0.596775 l 0.59105,-0.43839 v -2.012209 -2.01222 l -0.59105,0.0649 c -0.325075,0.03575 -1.9265,0.153227 -3.558729,0.261151 l -2.967684,0.196242 -0.933206,1.364255 c -0.513257,0.750356 -0.933206,1.408829 -0.933206,1.463275 0,0.05442 0.265968,0.157577 0.591042,0.229192 0.325076,0.07162 1.5446,0.469655 2.710053,0.884557 2.268104,0.807443 2.977399,0.913295 3.993518,0.59599 z"
         id="path2415" />
      <path style="color:#000000;fill:#000000;stroke-width:0.449749;-inkscape-stroke:none"
         d="m 38.327216,88.166782 c -0.591868,-0.16229 -2.457514,-0.660045 -2.877379,-0.767684 -0.140836,-0.03609 0.873698,-1.558755 1.064843,-1.598161 0.130031,-0.02676 1.140711,-0.08391 2.245967,-0.126915 l 2.009548,-0.07822 v 1.114171 c 0,1.028938 -0.02956,1.135848 -0.386865,1.397671 -0.464072,0.340099 -0.977498,0.354855 -2.056114,0.05909 z"
         id="path2417" />
      <path style="color:#000000;fill:#ffffff;stroke-width:0.449749;-inkscape-stroke:none"
         d="m 39.194078,87.005157 c 0,-0.199795 -0.101176,-0.229864 -0.748656,-0.222441 l -0.748656,0.0091 0.63045,0.213867 c 0.813291,0.275906 0.866862,0.275906 0.866862,0 z"
         id="path2419" />
      <path style="color:#000000;fill:#ffffff;stroke-width:0.449749;-inkscape-stroke:none"
         d="m 42.306913,81.930078 c 0.02163,-0.0034 0.03886,-1.657354 0.03807,-3.674333 l -0.0014,-3.667251 -2.020035,2.772094 c -1.111019,1.524643 -2.387096,3.242569 -2.835718,3.817609 -0.448634,0.57504 -0.815694,1.069937 -0.815694,1.099768 0,0.03894 5.305432,-0.288659 5.63462,-0.347887 z"
         id="path2421" />
      <path style="color:#000000;fill:#000000;stroke-width:0.449749;-inkscape-stroke:none"
         d="m 39.509303,80.719062 c 0,-0.02687 0.301431,-0.455697 0.669849,-0.952905 l 0.66985,-0.904027 0.0471,0.797071 c 0.06153,1.039959 0.01488,1.108739 -0.751449,1.108739 -0.349466,0 -0.635395,-0.02197 -0.635395,-0.04896 z"
         id="path2423" />
      <path style="color:#000000;fill:#ffffff;stroke-width:0.449749;-inkscape-stroke:none"
         d="m 33.217456,81.720117 c 0.136971,-0.174291 1.225444,-1.556717 2.418829,-3.072036 1.492912,-1.895654 2.11899,-2.79236 2.006956,-2.874461 -0.255839,-0.187498 -1.325606,-0.13977 -1.981746,0.08847 -0.328558,0.114254 -0.856135,0.462437 -1.172399,0.77373 l -0.575014,0.566 -0.04879,-0.541271 c -0.06374,-0.706589 0.456294,-1.949223 1.079688,-2.57987 0.334087,-0.337981 0.76525,-0.586927 1.365097,-0.788167 0.776166,-0.260412 1.018263,-0.287065 2.109907,-0.232221 l 1.233129,0.06194 0.391861,-0.479618 0.391862,-0.479629 -0.66076,-0.22778 c -0.523894,-0.18061 -1.003534,-0.228452 -2.315684,-0.231014 -1.433924,-0.0023 -1.746374,0.03256 -2.339776,0.264624 -1.519311,0.594191 -2.604217,1.7224 -3.356148,3.490103 -0.531137,1.248668 -0.532664,3.49066 -0.0033,4.726258 0.404219,0.943296 0.947936,1.853801 1.106347,1.852651 0.05549,-3.53e-4 0.212918,-0.143345 0.349894,-0.317635 z"
         id="path2425" />
      <path style="color:#000000;fill:#000000;stroke-width:0.449749;-inkscape-stroke:none"
         d="m 33.130073,79.641781 c -0.05965,-0.111124 -0.149081,-0.58539 -0.198701,-1.053827 l -0.09022,-0.851699 0.420099,0.20173 c 0.280451,0.134657 0.576658,0.178765 0.89109,0.132676 0.259048,-0.03791 0.470992,-0.0378 0.470992,3.87e-4 0,0.0896 -1.266487,1.77277 -1.333878,1.77277 -0.02801,0 -0.09971,-0.09097 -0.159386,-0.20214 z"
         id="path2427" />
   </g>
   <g id="path6851" style="fill:#3dffff" transform="translate(-183.37143,-324.61932)" />
</svg>